M48
; DRILL file {KiCad 7.0.2} date Sat Aug  5 13:01:55 2023
; FORMAT={-:-/ absolute / inch / decimal}
; #@! TF.CreationDate,2023-08-05T13:01:55+02:00
; #@! TF.GenerationSoftware,Kicad,Pcbnew,7.0.2
; #@! TF.FileFunction,Plated,1,2,PTH
FMAT,2
INCH
; #@! TA.AperFunction,Plated,PTH,ViaDrill
T1C0.0157
; #@! TA.AperFunction,Plated,PTH,ComponentDrill
T2C0.0197
; #@! TA.AperFunction,Plated,PTH,ComponentDrill
T3C0.0236
; #@! TA.AperFunction,Plated,PTH,ComponentDrill
T4C0.0276
; #@! TA.AperFunction,Plated,PTH,ComponentDrill
T5C0.0315
; #@! TA.AperFunction,Plated,PTH,ComponentDrill
T6C0.0354
; #@! TA.AperFunction,Plated,PTH,ComponentDrill
T7C0.0394
; #@! TA.AperFunction,Plated,PTH,ComponentDrill
T8C0.0398
; #@! TA.AperFunction,Plated,PTH,ComponentDrill
T9C0.0433
; #@! TA.AperFunction,Plated,PTH,ComponentDrill
T10C0.0472
; #@! TA.AperFunction,Plated,PTH,ComponentDrill
T11C0.0512
; #@! TA.AperFunction,Plated,PTH,ComponentDrill
T12C0.0591
; #@! TA.AperFunction,Plated,PTH,ComponentDrill
T13C0.0787
; #@! TA.AperFunction,Plated,PTH,ComponentDrill
T14C0.1181
; #@! TA.AperFunction,Plated,PTH,ComponentDrill
T15C0.1378
; #@! TA.AperFunction,Plated,PTH,ComponentDrill
T16C0.2087
; #@! TA.AperFunction,Plated,PTH,ComponentDrill
T17C0.2362
%
G90
G05
T1
X3.9874Y-3.5624
X4.9124Y-3.8374
X5.0374Y-3.6124
X5.0374Y-3.9874
X7.0874Y-2.0874
X7.0874Y-2.5624
X7.0874Y-3.1124
T2
X0.8488Y-0.9374
X0.8488Y-6.1624
X0.8748Y-0.8748
X0.8748Y-1.0
X0.8748Y-6.0998
X0.8748Y-6.225
X0.9374Y-0.8488
X0.9374Y-1.026
X0.9374Y-6.0738
X0.9374Y-6.251
X1.0Y-0.8748
X1.0Y-1.0
X1.0Y-6.0998
X1.0Y-6.225
X1.026Y-0.9374
X1.026Y-6.1624
X4.4124Y-2.3624
X4.4383Y-2.2998
X4.4383Y-2.425
X4.501Y-2.2738
X4.501Y-2.451
X4.5636Y-2.2998
X4.5636Y-2.425
X4.5896Y-2.3624
X8.4238Y-0.9374
X8.4238Y-6.1374
X8.4498Y-0.8748
X8.4498Y-1.0
X8.4498Y-6.0748
X8.4498Y-6.2
X8.5124Y-0.8488
X8.5124Y-1.026
X8.5124Y-6.0488
X8.5124Y-6.226
X8.575Y-0.8748
X8.575Y-1.0
X8.575Y-6.0748
X8.575Y-6.2
X8.601Y-0.9374
X8.601Y-6.1374
T3
X4.0374Y-3.3874
X4.0965Y-3.3874
X4.1624Y-4.4874
X4.2215Y-4.4874
X4.8074Y-3.1083
X4.8074Y-3.1674
X5.9874Y-2.5874
X5.9874Y-2.6465
T4
X3.8874Y-4.0674
X4.0374Y-4.2624
X4.0374Y-4.4624
X4.0874Y-4.0674
X4.3374Y-4.0124
X4.3374Y-4.1124
X4.3874Y-2.7874
X4.3874Y-2.9874
X4.5374Y-4.0124
X4.5374Y-4.1124
T5
X1.3124Y-5.9374
X1.7124Y-5.9374
X2.7624Y-4.1124
X2.7874Y-4.7874
X2.9124Y-2.9874
X2.9124Y-3.1874
X3.1624Y-4.1124
X3.1874Y-4.7874
X3.3124Y-2.9874
X3.3124Y-3.1874
X3.562Y-2.937
X3.562Y-3.037
X3.562Y-3.137
X3.562Y-3.237
X3.562Y-4.262
X3.562Y-4.362
X3.562Y-4.462
X3.562Y-4.562
X3.5696Y-2.6874
X3.5747Y-4.0074
X3.7074Y-2.6874
X3.7125Y-4.0074
X3.857Y-3.5576
X3.857Y-3.6576
X3.857Y-3.7976
X3.857Y-3.8976
X3.862Y-2.937
X3.862Y-3.037
X3.862Y-3.137
X3.862Y-3.237
X3.862Y-4.262
X3.862Y-4.362
X3.862Y-4.462
X3.862Y-4.562
X4.157Y-3.5576
X4.157Y-3.6576
X4.157Y-3.7976
X4.157Y-3.8976
X4.3374Y-2.6374
X4.357Y-3.1168
X4.357Y-3.2168
X4.357Y-3.3168
X4.357Y-3.4168
X4.357Y-3.5168
X4.357Y-3.6168
X4.357Y-3.7168
X4.357Y-3.8168
X4.657Y-3.1168
X4.657Y-3.2168
X4.657Y-3.3168
X4.657Y-3.4168
X4.657Y-3.5168
X4.657Y-3.6168
X4.657Y-3.7168
X4.657Y-3.8168
X4.7374Y-2.6374
X4.7874Y-3.3074
X4.7874Y-3.4058
T6
X3.5624Y-3.3874
X3.5624Y-4.7124
X3.8624Y-3.3874
X3.8624Y-4.7124
T7
X2.0306Y-6.0874
X2.2274Y-6.0874
X3.2187Y-5.0124
X3.6124Y-5.0124
X3.7406Y-5.0124
X4.1343Y-5.0124
X4.5192Y-2.7624
X4.5192Y-2.9593
X4.7161Y-2.8608
X5.2078Y-2.5874
X5.2078Y-2.6874
X5.2078Y-2.7874
X5.2078Y-2.8874
X5.2078Y-2.9874
X5.2078Y-3.0874
X5.2078Y-3.1874
X5.2078Y-3.2874
X5.2078Y-3.3874
X5.2078Y-3.4874
X5.2078Y-3.5874
X5.2078Y-3.6874
X5.2078Y-3.7874
X5.2078Y-3.8874
X5.2078Y-3.9874
X5.8078Y-2.5874
X5.8078Y-2.6874
X5.8078Y-2.7874
X5.8078Y-2.8874
X5.8078Y-2.9874
X5.8078Y-3.0874
X5.8078Y-3.1874
X5.8078Y-3.2874
X5.8078Y-3.3874
X5.8078Y-3.4874
X5.8078Y-3.5874
X5.8078Y-3.6874
X5.8078Y-3.7874
X5.8078Y-3.8874
X5.8078Y-3.9874
T9
X0.9624Y-4.6874
X1.1624Y-4.6874
T10
X2.9124Y-0.8921
X2.9124Y-1.4827
X3.3124Y-0.8921
X3.3124Y-1.4827
X3.7124Y-0.8921
X3.7124Y-1.4827
X4.0124Y-5.2695
X4.0124Y-6.1553
X4.1124Y-0.8921
X4.1124Y-1.4827
X4.1374Y-4.6624
X4.2374Y-4.6624
X4.3374Y-4.6624
X4.4374Y-4.6624
T11
X4.3522Y-6.1374
X4.5569Y-6.1374
X5.3679Y-6.1374
X5.5726Y-6.1374
T12
X1.2983Y-6.1274
X1.4874Y-4.8564
X1.4874Y-5.4784
X1.5128Y-6.1274
X1.7274Y-6.1274
X2.5374Y-2.2874
X2.5374Y-2.502
X2.5374Y-2.7165
X2.5374Y-2.9624
X2.5374Y-3.177
X2.5374Y-3.3915
X2.5374Y-3.6624
X2.5374Y-3.877
X2.5374Y-4.0915
X2.5374Y-4.3624
X2.5374Y-4.577
X2.5374Y-4.7915
X4.6374Y-5.1374
X4.6374Y-5.7374
X4.9374Y-1.4374
X5.152Y-1.4374
X5.3665Y-1.4374
X5.5374Y-5.1374
X5.5374Y-5.7374
X5.6374Y-1.4374
X5.852Y-1.4374
X6.0665Y-1.4374
X6.3374Y-1.4374
X6.552Y-1.4374
X6.7665Y-1.4374
X7.0374Y-1.4374
X7.252Y-1.4374
X7.4665Y-1.4374
X7.7374Y-1.4374
X7.952Y-1.4374
X8.1665Y-1.4374
T13
X1.3874Y-1.4874
X1.7811Y-1.4874
X3.0244Y-2.3874
X3.0244Y-2.6874
X3.0244Y-3.4874
X3.0244Y-3.7874
X7.7937Y-2.2874
X7.7937Y-3.4874
X8.1874Y-2.2874
X8.1874Y-3.4874
T14
X0.9374Y-0.9374
X0.9374Y-6.1624
X4.501Y-2.3624
X6.6764Y-2.4374
X7.0959Y-6.0124
X7.2984Y-2.4374
X8.5124Y-0.9374
X8.5124Y-6.1374
T15
X6.4244Y-2.1874
X6.4244Y-2.3874
X6.4244Y-2.7874
X6.4244Y-2.9874
X6.4244Y-3.1874
X6.4244Y-3.3874
X6.4244Y-3.7874
X6.4244Y-3.9874
T16
X7.6874Y-6.0124
X8.1874Y-6.0124
X8.3874Y-4.8274
X8.3874Y-5.4674
T17
X6.0289Y-6.0124
X6.5624Y-6.0124
T8
G00X2.9494Y-5.3589
M15
G01X2.6994Y-5.3589
M16
G05
G00X2.9494Y-6.0715
M15
G01X2.6994Y-6.0715
M16
G05
G00X3.5124Y-5.3589
M15
G01X3.2624Y-5.3589
M16
G05
G00X3.478Y-5.8874
M15
G01X3.478Y-6.1374
M16
G05
T0
M30
