%TF.GenerationSoftware,KiCad,Pcbnew,7.0.2*%
%TF.CreationDate,2023-08-05T13:01:47+02:00*%
%TF.ProjectId,supersmymps v2,73757065-7273-46d7-996d-70732076322e,rev?*%
%TF.SameCoordinates,Original*%
%TF.FileFunction,Profile,NP*%
%FSLAX46Y46*%
G04 Gerber Fmt 4.6, Leading zero omitted, Abs format (unit mm)*
G04 Created by KiCad (PCBNEW 7.0.2) date 2023-08-05 13:01:47*
%MOMM*%
%LPD*%
G01*
G04 APERTURE LIST*
%TA.AperFunction,Profile*%
%ADD10C,0.100000*%
%TD*%
G04 APERTURE END LIST*
D10*
X123124000Y-121092000D02*
X145476000Y-121092000D01*
X145476000Y-122108000D01*
X123124000Y-122108000D01*
X123124000Y-121092000D01*
X61910000Y-66355000D02*
X68895000Y-66355000D01*
X60640000Y-94930000D02*
X60640000Y-96200000D01*
X69276000Y-78420000D02*
X61910000Y-78420000D01*
X79055000Y-30795000D02*
X73975000Y-35875000D01*
X70165000Y-113980000D02*
X61910000Y-113980000D01*
X61910000Y-55560000D02*
X61910000Y-54290000D01*
X60640000Y-82865000D02*
X60640000Y-78420000D01*
X61910000Y-59370000D02*
X61910000Y-55560000D01*
X70800000Y-90485000D02*
X61910000Y-90485000D01*
X70165000Y-94930000D02*
X61910000Y-94930000D01*
X60640000Y-100645000D02*
X60640000Y-101915000D01*
X61910000Y-106995000D02*
X61910000Y-101915000D01*
X68895000Y-100645000D02*
X68895000Y-96200000D01*
X72705000Y-38415000D02*
X73975000Y-39685000D01*
X69276000Y-71435000D02*
X69276000Y-77150000D01*
X60640000Y-94930000D02*
X60640000Y-90485000D01*
X70165000Y-100645000D02*
X70165000Y-94930000D01*
X61910000Y-71435000D02*
X69276000Y-71435000D01*
X79055000Y-29525000D02*
X108265000Y-29525000D01*
X61910000Y-54290000D02*
X60640000Y-54290000D01*
X68260000Y-77150000D02*
X68260000Y-72705000D01*
X68260000Y-72705000D02*
X60640000Y-72705000D01*
X60640000Y-84135000D02*
X60640000Y-82865000D01*
X71435000Y-37145000D02*
X72705000Y-35875000D01*
X71435000Y-38415000D02*
X71435000Y-37145000D01*
X61910000Y-71435000D02*
X61910000Y-66355000D01*
X68895000Y-108265000D02*
X68895000Y-112710000D01*
X70165000Y-101915000D02*
X70165000Y-100645000D01*
X60640000Y-112710000D02*
X68895000Y-112710000D01*
X61910000Y-82865000D02*
X61910000Y-78420000D01*
X61910000Y-106995000D02*
X70165000Y-106995000D01*
X60640000Y-90485000D02*
X60640000Y-89215000D01*
X20000000Y-20000000D02*
X220000000Y-20000000D01*
X220000000Y-160000000D01*
X20000000Y-160000000D01*
X20000000Y-20000000D01*
X73975000Y-70800000D02*
X72705000Y-70800000D01*
X66355000Y-77150000D02*
X68260000Y-77150000D01*
X60640000Y-54290000D02*
X60640000Y-59370000D01*
X68895000Y-100645000D02*
X60640000Y-100645000D01*
X72705000Y-37145000D02*
X72705000Y-38415000D01*
X72705000Y-70800000D02*
X72705000Y-39685000D01*
X61910000Y-118425000D02*
X70800000Y-118425000D01*
X61910000Y-113980000D02*
X61910000Y-118425000D01*
X69276000Y-77150000D02*
X69276000Y-78420000D01*
X70800000Y-119695000D02*
X61910000Y-119695000D01*
X60640000Y-118425000D02*
X60640000Y-113980000D01*
X72705000Y-39685000D02*
X71435000Y-38415000D01*
X109535000Y-125410000D02*
X77150000Y-125410000D01*
X77150000Y-124775000D01*
X109535000Y-124775000D01*
X109535000Y-125410000D01*
X60640000Y-108265000D02*
X60640000Y-106995000D01*
X70800000Y-123505000D02*
X70800000Y-124775000D01*
X61910000Y-101915000D02*
X70165000Y-101915000D01*
X108265000Y-63180000D02*
X84770000Y-63180000D01*
X68895000Y-66355000D02*
X68895000Y-59370000D01*
X108265000Y-29525000D02*
X108265000Y-30795000D01*
X61910000Y-59370000D02*
X68895000Y-59370000D01*
X67625000Y-60640000D02*
X67625000Y-65085000D01*
X70800000Y-118425000D02*
X70800000Y-119695000D01*
X60640000Y-96200000D02*
X68895000Y-96200000D01*
X70800000Y-124775000D02*
X60640000Y-124775000D01*
X67625000Y-65085000D02*
X60640000Y-65085000D01*
X61910000Y-82865000D02*
X70800000Y-82865000D01*
X108265000Y-30795000D02*
X79055000Y-30795000D01*
X60640000Y-71435000D02*
X60640000Y-66355000D01*
X60640000Y-78420000D02*
X60640000Y-77150000D01*
X61910000Y-123505000D02*
X61910000Y-119695000D01*
X61910000Y-89215000D02*
X70800000Y-89215000D01*
X60640000Y-113980000D02*
X60640000Y-112710000D01*
X70800000Y-123505000D02*
X61910000Y-123505000D01*
X60640000Y-106995000D02*
X60640000Y-101915000D01*
X60640000Y-119695000D02*
X60640000Y-118425000D01*
X60640000Y-72705000D02*
X60640000Y-71435000D01*
X84770000Y-64450000D02*
X108265000Y-64450000D01*
X70800000Y-82865000D02*
X70800000Y-84135000D01*
X61910000Y-94930000D02*
X61910000Y-90485000D01*
X84770000Y-63180000D02*
X84770000Y-64450000D01*
X60640000Y-65085000D02*
X60640000Y-66355000D01*
X72705000Y-35875000D02*
X79055000Y-29525000D01*
X67625000Y-60640000D02*
X60640000Y-60640000D01*
X70800000Y-89215000D02*
X70800000Y-90485000D01*
X60640000Y-124775000D02*
X60640000Y-119695000D01*
X70165000Y-106995000D02*
X70165000Y-113980000D01*
X73975000Y-39685000D02*
X73975000Y-70800000D01*
X108265000Y-64450000D02*
X108265000Y-63180000D01*
X60640000Y-60640000D02*
X60640000Y-59370000D01*
X61910000Y-89215000D02*
X61910000Y-84135000D01*
X68895000Y-108265000D02*
X60640000Y-108265000D01*
X60640000Y-89215000D02*
X60640000Y-84135000D01*
X70800000Y-84135000D02*
X61910000Y-84135000D01*
X60640000Y-77150000D02*
X66355000Y-77150000D01*
X73975000Y-35875000D02*
X72705000Y-37145000D01*
M02*
