%TF.GenerationSoftware,KiCad,Pcbnew,7.0.2*%
%TF.CreationDate,2023-06-17T20:39:06+02:00*%
%TF.ProjectId,supersmymps v2,73757065-7273-46d7-996d-70732076322e,rev?*%
%TF.SameCoordinates,Original*%
%TF.FileFunction,Drillmap*%
%TF.FilePolarity,Positive*%
%FSLAX45Y45*%
G04 Gerber Fmt 4.5, Leading zero omitted, Abs format (unit mm)*
G04 Created by KiCad (PCBNEW 7.0.2) date 2023-06-17 20:39:06*
%MOMM*%
%LPD*%
G01*
G04 APERTURE LIST*
%ADD10C,0.100000*%
%ADD11C,0.200000*%
%ADD12C,0.350000*%
G04 APERTURE END LIST*
D10*
X6064000Y-12477500D02*
X6064000Y-11969500D01*
X7080000Y-12477500D02*
X6064000Y-12477500D01*
X7080000Y-12350500D02*
X7080000Y-12477500D01*
X6191000Y-12350500D02*
X6191000Y-11969500D01*
X7080000Y-12350500D02*
X6191000Y-12350500D01*
X6191000Y-5556000D02*
X6876800Y-5556000D01*
X6191000Y-5937000D02*
X6191000Y-5556000D01*
X6064000Y-5429000D02*
X6064000Y-5937000D01*
X6876800Y-5429000D02*
X6064000Y-5429000D01*
X6876800Y-5556000D02*
X6876800Y-5429000D01*
X6064000Y-7143500D02*
X6064000Y-6635500D01*
X6191000Y-7143500D02*
X6191000Y-6635500D01*
X6826000Y-7715000D02*
X6826000Y-7270500D01*
X6064000Y-11842500D02*
X6064000Y-11398000D01*
X6191000Y-11398000D02*
X6191000Y-11842500D01*
X6064000Y-10699500D02*
X6064000Y-10191500D01*
X6191000Y-10699500D02*
X6191000Y-10191500D01*
X6064000Y-8286500D02*
X6064000Y-7842000D01*
X6191000Y-8286500D02*
X6191000Y-7842000D01*
X6064000Y-8921500D02*
X6064000Y-8413500D01*
X6191000Y-8921500D02*
X6191000Y-8413500D01*
X6064000Y-9493000D02*
X6064000Y-9048500D01*
X6191000Y-9493000D02*
X6191000Y-9048500D01*
X6889500Y-10064500D02*
X6889500Y-9620000D01*
X6191000Y-11842500D02*
X7080000Y-11842500D01*
X6064000Y-11969500D02*
X6064000Y-11842500D01*
X7080000Y-11969500D02*
X6191000Y-11969500D01*
X7080000Y-11842500D02*
X7080000Y-11969500D01*
X6064000Y-11271000D02*
X7080000Y-11271000D01*
X6064000Y-11398000D02*
X6064000Y-11271000D01*
X7080000Y-11398000D02*
X6191000Y-11398000D01*
X7080000Y-11271000D02*
X7080000Y-11398000D01*
X6191000Y-10699500D02*
X7080000Y-10699500D01*
X6064000Y-10826500D02*
X6064000Y-10699500D01*
X7080000Y-10826500D02*
X6064000Y-10826500D01*
X7080000Y-10699500D02*
X7080000Y-10826500D01*
X7016500Y-10191500D02*
X7016500Y-10064500D01*
X6191000Y-10191500D02*
X7016500Y-10191500D01*
X6064000Y-10064500D02*
X6064000Y-10191500D01*
X6889500Y-10064500D02*
X6064000Y-10064500D01*
X7016500Y-10064500D02*
X7016500Y-9493000D01*
X6064000Y-9620000D02*
X6889500Y-9620000D01*
X6064000Y-9493000D02*
X6064000Y-9620000D01*
X7016500Y-9493000D02*
X6191000Y-9493000D01*
X6191000Y-5937000D02*
X6889500Y-5937000D01*
X6064000Y-6064000D02*
X6064000Y-5937000D01*
X6889500Y-6064000D02*
X6064000Y-6064000D01*
X6889500Y-5937000D02*
X6889500Y-6064000D01*
X6191000Y-6635500D02*
X6889500Y-6635500D01*
X6064000Y-6508500D02*
X6064000Y-6635500D01*
X6889500Y-6508500D02*
X6064000Y-6508500D01*
X6889500Y-6635500D02*
X6889500Y-6508500D01*
X6826000Y-7270500D02*
X6064000Y-7270500D01*
X6927600Y-7143500D02*
X6927600Y-7715000D01*
X6191000Y-7143500D02*
X6927600Y-7143500D01*
X6064000Y-7270500D02*
X6064000Y-7143500D01*
X6191000Y-8286500D02*
X7080000Y-8286500D01*
X6064000Y-8413500D02*
X6064000Y-8286500D01*
X7080000Y-8413500D02*
X6191000Y-8413500D01*
X7080000Y-8286500D02*
X7080000Y-8413500D01*
X6064000Y-7715000D02*
X6635500Y-7715000D01*
X6064000Y-7842000D02*
X6064000Y-7715000D01*
X6927600Y-7842000D02*
X6191000Y-7842000D01*
X6927600Y-7715000D02*
X6927600Y-7842000D01*
X6635500Y-7715000D02*
X6826000Y-7715000D01*
X6064000Y-9048500D02*
X6064000Y-8921500D01*
X7080000Y-9048500D02*
X6191000Y-9048500D01*
X7080000Y-8921500D02*
X7080000Y-9048500D01*
X6191000Y-8921500D02*
X7080000Y-8921500D01*
X7397500Y-7270500D02*
X7270500Y-7270500D01*
X7397500Y-6191000D02*
X7397500Y-7270500D01*
X7397500Y-4222500D02*
X7397500Y-6191000D01*
X8540500Y-3079500D02*
X7397500Y-4222500D01*
X11747500Y-3079500D02*
X8540500Y-3079500D01*
X11747500Y-2952500D02*
X11747500Y-3079500D01*
X8477000Y-2952500D02*
X11747500Y-2952500D01*
X7270500Y-4159000D02*
X8477000Y-2952500D01*
X7270500Y-7270500D02*
X7270500Y-4159000D01*
X2000000Y-2000000D02*
X22000000Y-2000000D01*
X22000000Y-16000000D01*
X2000000Y-16000000D01*
X2000000Y-2000000D01*
D11*
D12*
X8325000Y-5127000D02*
X8675000Y-5477000D01*
X8675000Y-5127000D02*
X8325000Y-5477000D01*
X8325000Y-10207000D02*
X8675000Y-10557000D01*
X8675000Y-10207000D02*
X8325000Y-10557000D01*
X15325000Y-5127000D02*
X15675000Y-5477000D01*
X15675000Y-5127000D02*
X15325000Y-5477000D01*
X15325000Y-10207000D02*
X15675000Y-10557000D01*
X15675000Y-10207000D02*
X15325000Y-10557000D01*
D11*
X2242619Y-16317524D02*
X2242619Y-16117524D01*
X2242619Y-16117524D02*
X2290238Y-16117524D01*
X2290238Y-16117524D02*
X2318810Y-16127048D01*
X2318810Y-16127048D02*
X2337857Y-16146095D01*
X2337857Y-16146095D02*
X2347381Y-16165143D01*
X2347381Y-16165143D02*
X2356905Y-16203238D01*
X2356905Y-16203238D02*
X2356905Y-16231809D01*
X2356905Y-16231809D02*
X2347381Y-16269905D01*
X2347381Y-16269905D02*
X2337857Y-16288952D01*
X2337857Y-16288952D02*
X2318810Y-16308000D01*
X2318810Y-16308000D02*
X2290238Y-16317524D01*
X2290238Y-16317524D02*
X2242619Y-16317524D01*
X2442619Y-16317524D02*
X2442619Y-16184190D01*
X2442619Y-16222286D02*
X2452143Y-16203238D01*
X2452143Y-16203238D02*
X2461667Y-16193714D01*
X2461667Y-16193714D02*
X2480714Y-16184190D01*
X2480714Y-16184190D02*
X2499762Y-16184190D01*
X2566429Y-16317524D02*
X2566429Y-16184190D01*
X2566429Y-16117524D02*
X2556905Y-16127048D01*
X2556905Y-16127048D02*
X2566429Y-16136571D01*
X2566429Y-16136571D02*
X2575952Y-16127048D01*
X2575952Y-16127048D02*
X2566429Y-16117524D01*
X2566429Y-16117524D02*
X2566429Y-16136571D01*
X2690238Y-16317524D02*
X2671190Y-16308000D01*
X2671190Y-16308000D02*
X2661667Y-16288952D01*
X2661667Y-16288952D02*
X2661667Y-16117524D01*
X2795000Y-16317524D02*
X2775952Y-16308000D01*
X2775952Y-16308000D02*
X2766429Y-16288952D01*
X2766429Y-16288952D02*
X2766429Y-16117524D01*
X3023571Y-16317524D02*
X3023571Y-16117524D01*
X3023571Y-16117524D02*
X3090238Y-16260381D01*
X3090238Y-16260381D02*
X3156905Y-16117524D01*
X3156905Y-16117524D02*
X3156905Y-16317524D01*
X3337857Y-16317524D02*
X3337857Y-16212762D01*
X3337857Y-16212762D02*
X3328333Y-16193714D01*
X3328333Y-16193714D02*
X3309286Y-16184190D01*
X3309286Y-16184190D02*
X3271190Y-16184190D01*
X3271190Y-16184190D02*
X3252143Y-16193714D01*
X3337857Y-16308000D02*
X3318809Y-16317524D01*
X3318809Y-16317524D02*
X3271190Y-16317524D01*
X3271190Y-16317524D02*
X3252143Y-16308000D01*
X3252143Y-16308000D02*
X3242619Y-16288952D01*
X3242619Y-16288952D02*
X3242619Y-16269905D01*
X3242619Y-16269905D02*
X3252143Y-16250857D01*
X3252143Y-16250857D02*
X3271190Y-16241333D01*
X3271190Y-16241333D02*
X3318809Y-16241333D01*
X3318809Y-16241333D02*
X3337857Y-16231809D01*
X3433095Y-16184190D02*
X3433095Y-16384190D01*
X3433095Y-16193714D02*
X3452143Y-16184190D01*
X3452143Y-16184190D02*
X3490238Y-16184190D01*
X3490238Y-16184190D02*
X3509286Y-16193714D01*
X3509286Y-16193714D02*
X3518809Y-16203238D01*
X3518809Y-16203238D02*
X3528333Y-16222286D01*
X3528333Y-16222286D02*
X3528333Y-16279428D01*
X3528333Y-16279428D02*
X3518809Y-16298476D01*
X3518809Y-16298476D02*
X3509286Y-16308000D01*
X3509286Y-16308000D02*
X3490238Y-16317524D01*
X3490238Y-16317524D02*
X3452143Y-16317524D01*
X3452143Y-16317524D02*
X3433095Y-16308000D01*
X3614048Y-16298476D02*
X3623571Y-16308000D01*
X3623571Y-16308000D02*
X3614048Y-16317524D01*
X3614048Y-16317524D02*
X3604524Y-16308000D01*
X3604524Y-16308000D02*
X3614048Y-16298476D01*
X3614048Y-16298476D02*
X3614048Y-16317524D01*
X3614048Y-16193714D02*
X3623571Y-16203238D01*
X3623571Y-16203238D02*
X3614048Y-16212762D01*
X3614048Y-16212762D02*
X3604524Y-16203238D01*
X3604524Y-16203238D02*
X3614048Y-16193714D01*
X3614048Y-16193714D02*
X3614048Y-16212762D01*
X1795000Y-16545000D02*
X1995000Y-16745000D01*
X1995000Y-16545000D02*
X1795000Y-16745000D01*
X2223571Y-16537524D02*
X2347381Y-16537524D01*
X2347381Y-16537524D02*
X2280714Y-16613714D01*
X2280714Y-16613714D02*
X2309286Y-16613714D01*
X2309286Y-16613714D02*
X2328333Y-16623238D01*
X2328333Y-16623238D02*
X2337857Y-16632762D01*
X2337857Y-16632762D02*
X2347381Y-16651809D01*
X2347381Y-16651809D02*
X2347381Y-16699428D01*
X2347381Y-16699428D02*
X2337857Y-16718476D01*
X2337857Y-16718476D02*
X2328333Y-16728000D01*
X2328333Y-16728000D02*
X2309286Y-16737524D01*
X2309286Y-16737524D02*
X2252143Y-16737524D01*
X2252143Y-16737524D02*
X2233095Y-16728000D01*
X2233095Y-16728000D02*
X2223571Y-16718476D01*
X2433095Y-16718476D02*
X2442619Y-16728000D01*
X2442619Y-16728000D02*
X2433095Y-16737524D01*
X2433095Y-16737524D02*
X2423571Y-16728000D01*
X2423571Y-16728000D02*
X2433095Y-16718476D01*
X2433095Y-16718476D02*
X2433095Y-16737524D01*
X2623571Y-16537524D02*
X2528333Y-16537524D01*
X2528333Y-16537524D02*
X2518810Y-16632762D01*
X2518810Y-16632762D02*
X2528333Y-16623238D01*
X2528333Y-16623238D02*
X2547381Y-16613714D01*
X2547381Y-16613714D02*
X2595000Y-16613714D01*
X2595000Y-16613714D02*
X2614048Y-16623238D01*
X2614048Y-16623238D02*
X2623571Y-16632762D01*
X2623571Y-16632762D02*
X2633095Y-16651809D01*
X2633095Y-16651809D02*
X2633095Y-16699428D01*
X2633095Y-16699428D02*
X2623571Y-16718476D01*
X2623571Y-16718476D02*
X2614048Y-16728000D01*
X2614048Y-16728000D02*
X2595000Y-16737524D01*
X2595000Y-16737524D02*
X2547381Y-16737524D01*
X2547381Y-16737524D02*
X2528333Y-16728000D01*
X2528333Y-16728000D02*
X2518810Y-16718476D01*
X2756905Y-16537524D02*
X2775952Y-16537524D01*
X2775952Y-16537524D02*
X2795000Y-16547048D01*
X2795000Y-16547048D02*
X2804524Y-16556571D01*
X2804524Y-16556571D02*
X2814048Y-16575619D01*
X2814048Y-16575619D02*
X2823571Y-16613714D01*
X2823571Y-16613714D02*
X2823571Y-16661333D01*
X2823571Y-16661333D02*
X2814048Y-16699428D01*
X2814048Y-16699428D02*
X2804524Y-16718476D01*
X2804524Y-16718476D02*
X2795000Y-16728000D01*
X2795000Y-16728000D02*
X2775952Y-16737524D01*
X2775952Y-16737524D02*
X2756905Y-16737524D01*
X2756905Y-16737524D02*
X2737857Y-16728000D01*
X2737857Y-16728000D02*
X2728333Y-16718476D01*
X2728333Y-16718476D02*
X2718810Y-16699428D01*
X2718810Y-16699428D02*
X2709286Y-16661333D01*
X2709286Y-16661333D02*
X2709286Y-16613714D01*
X2709286Y-16613714D02*
X2718810Y-16575619D01*
X2718810Y-16575619D02*
X2728333Y-16556571D01*
X2728333Y-16556571D02*
X2737857Y-16547048D01*
X2737857Y-16547048D02*
X2756905Y-16537524D01*
X2947381Y-16537524D02*
X2966429Y-16537524D01*
X2966429Y-16537524D02*
X2985476Y-16547048D01*
X2985476Y-16547048D02*
X2995000Y-16556571D01*
X2995000Y-16556571D02*
X3004524Y-16575619D01*
X3004524Y-16575619D02*
X3014048Y-16613714D01*
X3014048Y-16613714D02*
X3014048Y-16661333D01*
X3014048Y-16661333D02*
X3004524Y-16699428D01*
X3004524Y-16699428D02*
X2995000Y-16718476D01*
X2995000Y-16718476D02*
X2985476Y-16728000D01*
X2985476Y-16728000D02*
X2966429Y-16737524D01*
X2966429Y-16737524D02*
X2947381Y-16737524D01*
X2947381Y-16737524D02*
X2928333Y-16728000D01*
X2928333Y-16728000D02*
X2918809Y-16718476D01*
X2918809Y-16718476D02*
X2909286Y-16699428D01*
X2909286Y-16699428D02*
X2899762Y-16661333D01*
X2899762Y-16661333D02*
X2899762Y-16613714D01*
X2899762Y-16613714D02*
X2909286Y-16575619D01*
X2909286Y-16575619D02*
X2918809Y-16556571D01*
X2918809Y-16556571D02*
X2928333Y-16547048D01*
X2928333Y-16547048D02*
X2947381Y-16537524D01*
X3099762Y-16737524D02*
X3099762Y-16604190D01*
X3099762Y-16623238D02*
X3109286Y-16613714D01*
X3109286Y-16613714D02*
X3128333Y-16604190D01*
X3128333Y-16604190D02*
X3156905Y-16604190D01*
X3156905Y-16604190D02*
X3175952Y-16613714D01*
X3175952Y-16613714D02*
X3185476Y-16632762D01*
X3185476Y-16632762D02*
X3185476Y-16737524D01*
X3185476Y-16632762D02*
X3195000Y-16613714D01*
X3195000Y-16613714D02*
X3214048Y-16604190D01*
X3214048Y-16604190D02*
X3242619Y-16604190D01*
X3242619Y-16604190D02*
X3261667Y-16613714D01*
X3261667Y-16613714D02*
X3271190Y-16632762D01*
X3271190Y-16632762D02*
X3271190Y-16737524D01*
X3366429Y-16737524D02*
X3366429Y-16604190D01*
X3366429Y-16623238D02*
X3375952Y-16613714D01*
X3375952Y-16613714D02*
X3395000Y-16604190D01*
X3395000Y-16604190D02*
X3423571Y-16604190D01*
X3423571Y-16604190D02*
X3442619Y-16613714D01*
X3442619Y-16613714D02*
X3452143Y-16632762D01*
X3452143Y-16632762D02*
X3452143Y-16737524D01*
X3452143Y-16632762D02*
X3461667Y-16613714D01*
X3461667Y-16613714D02*
X3480714Y-16604190D01*
X3480714Y-16604190D02*
X3509286Y-16604190D01*
X3509286Y-16604190D02*
X3528333Y-16613714D01*
X3528333Y-16613714D02*
X3537857Y-16632762D01*
X3537857Y-16632762D02*
X3537857Y-16737524D01*
X3928333Y-16528000D02*
X3756905Y-16785143D01*
X4185476Y-16537524D02*
X4204524Y-16537524D01*
X4204524Y-16537524D02*
X4223572Y-16547048D01*
X4223572Y-16547048D02*
X4233095Y-16556571D01*
X4233095Y-16556571D02*
X4242619Y-16575619D01*
X4242619Y-16575619D02*
X4252143Y-16613714D01*
X4252143Y-16613714D02*
X4252143Y-16661333D01*
X4252143Y-16661333D02*
X4242619Y-16699428D01*
X4242619Y-16699428D02*
X4233095Y-16718476D01*
X4233095Y-16718476D02*
X4223572Y-16728000D01*
X4223572Y-16728000D02*
X4204524Y-16737524D01*
X4204524Y-16737524D02*
X4185476Y-16737524D01*
X4185476Y-16737524D02*
X4166429Y-16728000D01*
X4166429Y-16728000D02*
X4156905Y-16718476D01*
X4156905Y-16718476D02*
X4147381Y-16699428D01*
X4147381Y-16699428D02*
X4137857Y-16661333D01*
X4137857Y-16661333D02*
X4137857Y-16613714D01*
X4137857Y-16613714D02*
X4147381Y-16575619D01*
X4147381Y-16575619D02*
X4156905Y-16556571D01*
X4156905Y-16556571D02*
X4166429Y-16547048D01*
X4166429Y-16547048D02*
X4185476Y-16537524D01*
X4337857Y-16718476D02*
X4347381Y-16728000D01*
X4347381Y-16728000D02*
X4337857Y-16737524D01*
X4337857Y-16737524D02*
X4328334Y-16728000D01*
X4328334Y-16728000D02*
X4337857Y-16718476D01*
X4337857Y-16718476D02*
X4337857Y-16737524D01*
X4537857Y-16737524D02*
X4423572Y-16737524D01*
X4480714Y-16737524D02*
X4480714Y-16537524D01*
X4480714Y-16537524D02*
X4461667Y-16566095D01*
X4461667Y-16566095D02*
X4442619Y-16585143D01*
X4442619Y-16585143D02*
X4423572Y-16594667D01*
X4604524Y-16537524D02*
X4728334Y-16537524D01*
X4728334Y-16537524D02*
X4661667Y-16613714D01*
X4661667Y-16613714D02*
X4690238Y-16613714D01*
X4690238Y-16613714D02*
X4709286Y-16623238D01*
X4709286Y-16623238D02*
X4718810Y-16632762D01*
X4718810Y-16632762D02*
X4728334Y-16651809D01*
X4728334Y-16651809D02*
X4728334Y-16699428D01*
X4728334Y-16699428D02*
X4718810Y-16718476D01*
X4718810Y-16718476D02*
X4709286Y-16728000D01*
X4709286Y-16728000D02*
X4690238Y-16737524D01*
X4690238Y-16737524D02*
X4633095Y-16737524D01*
X4633095Y-16737524D02*
X4614048Y-16728000D01*
X4614048Y-16728000D02*
X4604524Y-16718476D01*
X4795000Y-16537524D02*
X4928334Y-16537524D01*
X4928334Y-16537524D02*
X4842619Y-16737524D01*
X5033095Y-16623238D02*
X5014048Y-16613714D01*
X5014048Y-16613714D02*
X5004524Y-16604190D01*
X5004524Y-16604190D02*
X4995000Y-16585143D01*
X4995000Y-16585143D02*
X4995000Y-16575619D01*
X4995000Y-16575619D02*
X5004524Y-16556571D01*
X5004524Y-16556571D02*
X5014048Y-16547048D01*
X5014048Y-16547048D02*
X5033095Y-16537524D01*
X5033095Y-16537524D02*
X5071191Y-16537524D01*
X5071191Y-16537524D02*
X5090238Y-16547048D01*
X5090238Y-16547048D02*
X5099762Y-16556571D01*
X5099762Y-16556571D02*
X5109286Y-16575619D01*
X5109286Y-16575619D02*
X5109286Y-16585143D01*
X5109286Y-16585143D02*
X5099762Y-16604190D01*
X5099762Y-16604190D02*
X5090238Y-16613714D01*
X5090238Y-16613714D02*
X5071191Y-16623238D01*
X5071191Y-16623238D02*
X5033095Y-16623238D01*
X5033095Y-16623238D02*
X5014048Y-16632762D01*
X5014048Y-16632762D02*
X5004524Y-16642286D01*
X5004524Y-16642286D02*
X4995000Y-16661333D01*
X4995000Y-16661333D02*
X4995000Y-16699428D01*
X4995000Y-16699428D02*
X5004524Y-16718476D01*
X5004524Y-16718476D02*
X5014048Y-16728000D01*
X5014048Y-16728000D02*
X5033095Y-16737524D01*
X5033095Y-16737524D02*
X5071191Y-16737524D01*
X5071191Y-16737524D02*
X5090238Y-16728000D01*
X5090238Y-16728000D02*
X5099762Y-16718476D01*
X5099762Y-16718476D02*
X5109286Y-16699428D01*
X5109286Y-16699428D02*
X5109286Y-16661333D01*
X5109286Y-16661333D02*
X5099762Y-16642286D01*
X5099762Y-16642286D02*
X5090238Y-16632762D01*
X5090238Y-16632762D02*
X5071191Y-16623238D01*
X5185476Y-16537524D02*
X5185476Y-16575619D01*
X5261667Y-16537524D02*
X5261667Y-16575619D01*
X5556905Y-16813714D02*
X5547381Y-16804190D01*
X5547381Y-16804190D02*
X5528334Y-16775619D01*
X5528334Y-16775619D02*
X5518810Y-16756571D01*
X5518810Y-16756571D02*
X5509286Y-16728000D01*
X5509286Y-16728000D02*
X5499762Y-16680381D01*
X5499762Y-16680381D02*
X5499762Y-16642286D01*
X5499762Y-16642286D02*
X5509286Y-16594667D01*
X5509286Y-16594667D02*
X5518810Y-16566095D01*
X5518810Y-16566095D02*
X5528334Y-16547048D01*
X5528334Y-16547048D02*
X5547381Y-16518476D01*
X5547381Y-16518476D02*
X5556905Y-16508952D01*
X5718810Y-16604190D02*
X5718810Y-16737524D01*
X5671191Y-16528000D02*
X5623572Y-16670857D01*
X5623572Y-16670857D02*
X5747381Y-16670857D01*
X5975953Y-16737524D02*
X5975953Y-16537524D01*
X6061667Y-16737524D02*
X6061667Y-16632762D01*
X6061667Y-16632762D02*
X6052143Y-16613714D01*
X6052143Y-16613714D02*
X6033096Y-16604190D01*
X6033096Y-16604190D02*
X6004524Y-16604190D01*
X6004524Y-16604190D02*
X5985476Y-16613714D01*
X5985476Y-16613714D02*
X5975953Y-16623238D01*
X6185476Y-16737524D02*
X6166429Y-16728000D01*
X6166429Y-16728000D02*
X6156905Y-16718476D01*
X6156905Y-16718476D02*
X6147381Y-16699428D01*
X6147381Y-16699428D02*
X6147381Y-16642286D01*
X6147381Y-16642286D02*
X6156905Y-16623238D01*
X6156905Y-16623238D02*
X6166429Y-16613714D01*
X6166429Y-16613714D02*
X6185476Y-16604190D01*
X6185476Y-16604190D02*
X6214048Y-16604190D01*
X6214048Y-16604190D02*
X6233096Y-16613714D01*
X6233096Y-16613714D02*
X6242619Y-16623238D01*
X6242619Y-16623238D02*
X6252143Y-16642286D01*
X6252143Y-16642286D02*
X6252143Y-16699428D01*
X6252143Y-16699428D02*
X6242619Y-16718476D01*
X6242619Y-16718476D02*
X6233096Y-16728000D01*
X6233096Y-16728000D02*
X6214048Y-16737524D01*
X6214048Y-16737524D02*
X6185476Y-16737524D01*
X6366429Y-16737524D02*
X6347381Y-16728000D01*
X6347381Y-16728000D02*
X6337857Y-16708952D01*
X6337857Y-16708952D02*
X6337857Y-16537524D01*
X6518810Y-16728000D02*
X6499762Y-16737524D01*
X6499762Y-16737524D02*
X6461667Y-16737524D01*
X6461667Y-16737524D02*
X6442619Y-16728000D01*
X6442619Y-16728000D02*
X6433096Y-16708952D01*
X6433096Y-16708952D02*
X6433096Y-16632762D01*
X6433096Y-16632762D02*
X6442619Y-16613714D01*
X6442619Y-16613714D02*
X6461667Y-16604190D01*
X6461667Y-16604190D02*
X6499762Y-16604190D01*
X6499762Y-16604190D02*
X6518810Y-16613714D01*
X6518810Y-16613714D02*
X6528334Y-16632762D01*
X6528334Y-16632762D02*
X6528334Y-16651809D01*
X6528334Y-16651809D02*
X6433096Y-16670857D01*
X6604524Y-16728000D02*
X6623572Y-16737524D01*
X6623572Y-16737524D02*
X6661667Y-16737524D01*
X6661667Y-16737524D02*
X6680715Y-16728000D01*
X6680715Y-16728000D02*
X6690238Y-16708952D01*
X6690238Y-16708952D02*
X6690238Y-16699428D01*
X6690238Y-16699428D02*
X6680715Y-16680381D01*
X6680715Y-16680381D02*
X6661667Y-16670857D01*
X6661667Y-16670857D02*
X6633096Y-16670857D01*
X6633096Y-16670857D02*
X6614048Y-16661333D01*
X6614048Y-16661333D02*
X6604524Y-16642286D01*
X6604524Y-16642286D02*
X6604524Y-16632762D01*
X6604524Y-16632762D02*
X6614048Y-16613714D01*
X6614048Y-16613714D02*
X6633096Y-16604190D01*
X6633096Y-16604190D02*
X6661667Y-16604190D01*
X6661667Y-16604190D02*
X6680715Y-16613714D01*
X6756905Y-16813714D02*
X6766429Y-16804190D01*
X6766429Y-16804190D02*
X6785477Y-16775619D01*
X6785477Y-16775619D02*
X6795000Y-16756571D01*
X6795000Y-16756571D02*
X6804524Y-16728000D01*
X6804524Y-16728000D02*
X6814048Y-16680381D01*
X6814048Y-16680381D02*
X6814048Y-16642286D01*
X6814048Y-16642286D02*
X6804524Y-16594667D01*
X6804524Y-16594667D02*
X6795000Y-16566095D01*
X6795000Y-16566095D02*
X6785477Y-16547048D01*
X6785477Y-16547048D02*
X6766429Y-16518476D01*
X6766429Y-16518476D02*
X6756905Y-16508952D01*
X7118810Y-16813714D02*
X7109286Y-16804190D01*
X7109286Y-16804190D02*
X7090238Y-16775619D01*
X7090238Y-16775619D02*
X7080715Y-16756571D01*
X7080715Y-16756571D02*
X7071191Y-16728000D01*
X7071191Y-16728000D02*
X7061667Y-16680381D01*
X7061667Y-16680381D02*
X7061667Y-16642286D01*
X7061667Y-16642286D02*
X7071191Y-16594667D01*
X7071191Y-16594667D02*
X7080715Y-16566095D01*
X7080715Y-16566095D02*
X7090238Y-16547048D01*
X7090238Y-16547048D02*
X7109286Y-16518476D01*
X7109286Y-16518476D02*
X7118810Y-16508952D01*
X7195000Y-16604190D02*
X7195000Y-16737524D01*
X7195000Y-16623238D02*
X7204524Y-16613714D01*
X7204524Y-16613714D02*
X7223572Y-16604190D01*
X7223572Y-16604190D02*
X7252143Y-16604190D01*
X7252143Y-16604190D02*
X7271191Y-16613714D01*
X7271191Y-16613714D02*
X7280715Y-16632762D01*
X7280715Y-16632762D02*
X7280715Y-16737524D01*
X7404524Y-16737524D02*
X7385477Y-16728000D01*
X7385477Y-16728000D02*
X7375953Y-16718476D01*
X7375953Y-16718476D02*
X7366429Y-16699428D01*
X7366429Y-16699428D02*
X7366429Y-16642286D01*
X7366429Y-16642286D02*
X7375953Y-16623238D01*
X7375953Y-16623238D02*
X7385477Y-16613714D01*
X7385477Y-16613714D02*
X7404524Y-16604190D01*
X7404524Y-16604190D02*
X7433096Y-16604190D01*
X7433096Y-16604190D02*
X7452143Y-16613714D01*
X7452143Y-16613714D02*
X7461667Y-16623238D01*
X7461667Y-16623238D02*
X7471191Y-16642286D01*
X7471191Y-16642286D02*
X7471191Y-16699428D01*
X7471191Y-16699428D02*
X7461667Y-16718476D01*
X7461667Y-16718476D02*
X7452143Y-16728000D01*
X7452143Y-16728000D02*
X7433096Y-16737524D01*
X7433096Y-16737524D02*
X7404524Y-16737524D01*
X7528334Y-16604190D02*
X7604524Y-16604190D01*
X7556905Y-16537524D02*
X7556905Y-16708952D01*
X7556905Y-16708952D02*
X7566429Y-16728000D01*
X7566429Y-16728000D02*
X7585477Y-16737524D01*
X7585477Y-16737524D02*
X7604524Y-16737524D01*
X7823572Y-16604190D02*
X7823572Y-16804190D01*
X7823572Y-16613714D02*
X7842619Y-16604190D01*
X7842619Y-16604190D02*
X7880715Y-16604190D01*
X7880715Y-16604190D02*
X7899762Y-16613714D01*
X7899762Y-16613714D02*
X7909286Y-16623238D01*
X7909286Y-16623238D02*
X7918810Y-16642286D01*
X7918810Y-16642286D02*
X7918810Y-16699428D01*
X7918810Y-16699428D02*
X7909286Y-16718476D01*
X7909286Y-16718476D02*
X7899762Y-16728000D01*
X7899762Y-16728000D02*
X7880715Y-16737524D01*
X7880715Y-16737524D02*
X7842619Y-16737524D01*
X7842619Y-16737524D02*
X7823572Y-16728000D01*
X8033096Y-16737524D02*
X8014048Y-16728000D01*
X8014048Y-16728000D02*
X8004524Y-16708952D01*
X8004524Y-16708952D02*
X8004524Y-16537524D01*
X8195000Y-16737524D02*
X8195000Y-16632762D01*
X8195000Y-16632762D02*
X8185477Y-16613714D01*
X8185477Y-16613714D02*
X8166429Y-16604190D01*
X8166429Y-16604190D02*
X8128334Y-16604190D01*
X8128334Y-16604190D02*
X8109286Y-16613714D01*
X8195000Y-16728000D02*
X8175953Y-16737524D01*
X8175953Y-16737524D02*
X8128334Y-16737524D01*
X8128334Y-16737524D02*
X8109286Y-16728000D01*
X8109286Y-16728000D02*
X8099762Y-16708952D01*
X8099762Y-16708952D02*
X8099762Y-16689905D01*
X8099762Y-16689905D02*
X8109286Y-16670857D01*
X8109286Y-16670857D02*
X8128334Y-16661333D01*
X8128334Y-16661333D02*
X8175953Y-16661333D01*
X8175953Y-16661333D02*
X8195000Y-16651809D01*
X8261667Y-16604190D02*
X8337858Y-16604190D01*
X8290239Y-16537524D02*
X8290239Y-16708952D01*
X8290239Y-16708952D02*
X8299762Y-16728000D01*
X8299762Y-16728000D02*
X8318810Y-16737524D01*
X8318810Y-16737524D02*
X8337858Y-16737524D01*
X8480715Y-16728000D02*
X8461667Y-16737524D01*
X8461667Y-16737524D02*
X8423572Y-16737524D01*
X8423572Y-16737524D02*
X8404524Y-16728000D01*
X8404524Y-16728000D02*
X8395001Y-16708952D01*
X8395001Y-16708952D02*
X8395001Y-16632762D01*
X8395001Y-16632762D02*
X8404524Y-16613714D01*
X8404524Y-16613714D02*
X8423572Y-16604190D01*
X8423572Y-16604190D02*
X8461667Y-16604190D01*
X8461667Y-16604190D02*
X8480715Y-16613714D01*
X8480715Y-16613714D02*
X8490239Y-16632762D01*
X8490239Y-16632762D02*
X8490239Y-16651809D01*
X8490239Y-16651809D02*
X8395001Y-16670857D01*
X8661667Y-16737524D02*
X8661667Y-16537524D01*
X8661667Y-16728000D02*
X8642620Y-16737524D01*
X8642620Y-16737524D02*
X8604524Y-16737524D01*
X8604524Y-16737524D02*
X8585477Y-16728000D01*
X8585477Y-16728000D02*
X8575953Y-16718476D01*
X8575953Y-16718476D02*
X8566429Y-16699428D01*
X8566429Y-16699428D02*
X8566429Y-16642286D01*
X8566429Y-16642286D02*
X8575953Y-16623238D01*
X8575953Y-16623238D02*
X8585477Y-16613714D01*
X8585477Y-16613714D02*
X8604524Y-16604190D01*
X8604524Y-16604190D02*
X8642620Y-16604190D01*
X8642620Y-16604190D02*
X8661667Y-16613714D01*
X8737858Y-16813714D02*
X8747382Y-16804190D01*
X8747382Y-16804190D02*
X8766429Y-16775619D01*
X8766429Y-16775619D02*
X8775953Y-16756571D01*
X8775953Y-16756571D02*
X8785477Y-16728000D01*
X8785477Y-16728000D02*
X8795001Y-16680381D01*
X8795001Y-16680381D02*
X8795001Y-16642286D01*
X8795001Y-16642286D02*
X8785477Y-16594667D01*
X8785477Y-16594667D02*
X8775953Y-16566095D01*
X8775953Y-16566095D02*
X8766429Y-16547048D01*
X8766429Y-16547048D02*
X8747382Y-16518476D01*
X8747382Y-16518476D02*
X8737858Y-16508952D01*
M02*
