%TF.GenerationSoftware,KiCad,Pcbnew,7.0.9*%
%TF.CreationDate,2024-03-27T11:04:52+01:00*%
%TF.ProjectId,supersmymps v2,73757065-7273-46d7-996d-70732076322e,rev?*%
%TF.SameCoordinates,Original*%
%TF.FileFunction,Paste,Top*%
%TF.FilePolarity,Positive*%
%FSLAX46Y46*%
G04 Gerber Fmt 4.6, Leading zero omitted, Abs format (unit mm)*
G04 Created by KiCad (PCBNEW 7.0.9) date 2024-03-27 11:04:52*
%MOMM*%
%LPD*%
G01*
G04 APERTURE LIST*
G04 Aperture macros list*
%AMRoundRect*
0 Rectangle with rounded corners*
0 $1 Rounding radius*
0 $2 $3 $4 $5 $6 $7 $8 $9 X,Y pos of 4 corners*
0 Add a 4 corners polygon primitive as box body*
4,1,4,$2,$3,$4,$5,$6,$7,$8,$9,$2,$3,0*
0 Add four circle primitives for the rounded corners*
1,1,$1+$1,$2,$3*
1,1,$1+$1,$4,$5*
1,1,$1+$1,$6,$7*
1,1,$1+$1,$8,$9*
0 Add four rect primitives between the rounded corners*
20,1,$1+$1,$2,$3,$4,$5,0*
20,1,$1+$1,$4,$5,$6,$7,0*
20,1,$1+$1,$6,$7,$8,$9,0*
20,1,$1+$1,$8,$9,$2,$3,0*%
%AMRotRect*
0 Rectangle, with rotation*
0 The origin of the aperture is its center*
0 $1 length*
0 $2 width*
0 $3 Rotation angle, in degrees counterclockwise*
0 Add horizontal line*
21,1,$1,$2,0,0,$3*%
G04 Aperture macros list end*
%ADD10RoundRect,0.249999X0.450001X1.425001X-0.450001X1.425001X-0.450001X-1.425001X0.450001X-1.425001X0*%
%ADD11RotRect,1.600000X0.550000X135.000000*%
%ADD12RotRect,1.600000X0.550000X225.000000*%
%ADD13R,1.000000X2.800000*%
%ADD14R,2.000000X0.600000*%
%ADD15RoundRect,0.250000X0.350000X-0.850000X0.350000X0.850000X-0.350000X0.850000X-0.350000X-0.850000X0*%
%ADD16RoundRect,0.250000X1.125000X-1.275000X1.125000X1.275000X-1.125000X1.275000X-1.125000X-1.275000X0*%
G04 APERTURE END LIST*
D10*
%TO.C,R17*%
X63690000Y-153416000D03*
X57590000Y-153416000D03*
%TD*%
D11*
%TO.C,U7*%
X146567305Y-85757103D03*
X147132990Y-85191417D03*
X147698676Y-84625732D03*
X148264361Y-84060047D03*
X148830047Y-83494361D03*
X149395732Y-82928676D03*
X149961417Y-82362990D03*
X150527103Y-81797305D03*
D12*
X150527103Y-79746695D03*
X149961417Y-79181010D03*
X149395732Y-78615324D03*
X148830047Y-78049639D03*
X148264361Y-77483953D03*
X147698676Y-76918268D03*
X147132990Y-76352583D03*
X146567305Y-75786897D03*
D11*
X144516695Y-75786897D03*
X143951010Y-76352583D03*
X143385324Y-76918268D03*
X142819639Y-77483953D03*
X142253953Y-78049639D03*
X141688268Y-78615324D03*
X141122583Y-79181010D03*
X140556897Y-79746695D03*
D12*
X140556897Y-81797305D03*
X141122583Y-82362990D03*
X141688268Y-82928676D03*
X142253953Y-83494361D03*
X142819639Y-84060047D03*
X143385324Y-84625732D03*
X143951010Y-85191417D03*
X144516695Y-85757103D03*
%TD*%
D10*
%TO.C,R18*%
X63690000Y-157480000D03*
X57590000Y-157480000D03*
%TD*%
D13*
%TO.C,SW1*%
X128556000Y-78084000D03*
X128556000Y-72284000D03*
X132556000Y-78084000D03*
X132556000Y-72284000D03*
%TD*%
D10*
%TO.C,R16*%
X63690000Y-149352000D03*
X57590000Y-149352000D03*
%TD*%
D14*
%TO.C,U3*%
X146677000Y-67945000D03*
X146677000Y-66675000D03*
X146677000Y-65405000D03*
X146677000Y-64135000D03*
X141227000Y-64135000D03*
X141227000Y-65405000D03*
X141227000Y-66675000D03*
X141227000Y-67945000D03*
%TD*%
D15*
%TO.C,U10*%
X132522000Y-99060000D03*
X134802000Y-99060000D03*
D16*
X133277000Y-94435000D03*
X136327000Y-94435000D03*
X133277000Y-91085000D03*
X136327000Y-91085000D03*
D15*
X137082000Y-99060000D03*
%TD*%
D10*
%TO.C,R15*%
X63690000Y-145288000D03*
X57590000Y-145288000D03*
%TD*%
M02*
