M48
; DRILL file {KiCad 7.0.9} date Wed Mar 27 11:05:00 2024
; FORMAT={-:-/ absolute / inch / decimal}
; #@! TF.CreationDate,2024-03-27T11:05:00+01:00
; #@! TF.GenerationSoftware,Kicad,Pcbnew,7.0.9
; #@! TF.FileFunction,Plated,1,2,PTH
FMAT,2
INCH
; #@! TA.AperFunction,Plated,PTH,ViaDrill
T1C0.0118
; #@! TA.AperFunction,Plated,PTH,ViaDrill
T2C0.0157
; #@! TA.AperFunction,Plated,PTH,ComponentDrill
T3C0.0197
; #@! TA.AperFunction,Plated,PTH,ComponentDrill
T4C0.0236
; #@! TA.AperFunction,Plated,PTH,ComponentDrill
T5C0.0276
; #@! TA.AperFunction,Plated,PTH,ComponentDrill
T6C0.0315
; #@! TA.AperFunction,Plated,PTH,ComponentDrill
T7C0.0354
; #@! TA.AperFunction,Plated,PTH,ComponentDrill
T8C0.0394
; #@! TA.AperFunction,Plated,PTH,ComponentDrill
T9C0.0398
; #@! TA.AperFunction,Plated,PTH,ComponentDrill
T10C0.0433
; #@! TA.AperFunction,Plated,PTH,ComponentDrill
T11C0.0472
; #@! TA.AperFunction,Plated,PTH,ComponentDrill
T12C0.0512
; #@! TA.AperFunction,Plated,PTH,ComponentDrill
T13C0.0591
; #@! TA.AperFunction,Plated,PTH,ComponentDrill
T14C0.0787
; #@! TA.AperFunction,Plated,PTH,ComponentDrill
T15C0.0866
; #@! TA.AperFunction,Plated,PTH,ComponentDrill
T16C0.1181
; #@! TA.AperFunction,Plated,PTH,ViaDrill
T17C0.1260
; #@! TA.AperFunction,Plated,PTH,ComponentDrill
T18C0.1378
; #@! TA.AperFunction,Plated,PTH,ComponentDrill
T19C0.2087
%
G90
G05
T1
X4.95Y-3.48
X5.16Y-3.57
X5.48Y-3.41
X5.49Y-3.26
X5.52Y-3.41
X5.53Y-3.02
X5.56Y-3.41
X5.5775Y-3.173
X5.5993Y-3.1993
X5.6Y-3.75
X5.6216Y-3.2216
X5.64Y-3.67
X5.64Y-3.71
X5.66Y-3.11
X5.66Y-3.4059
X5.7044Y-3.18
X5.73Y-3.26
X5.7889Y-3.2611
X5.79Y-3.44
X5.84Y-3.4014
X5.8632Y-3.38
X5.8877Y-3.36
X5.95Y-3.29
X5.9909Y-3.2909
X6.0468Y-3.0185
X6.0483Y-3.0983
T2
X1.3374Y-5.42
X2.2674Y-5.68
X2.2674Y-5.72
X2.2674Y-5.76
X2.2674Y-5.8
X2.2674Y-5.84
X2.2674Y-5.88
X2.2674Y-5.92
X2.2674Y-5.96
X2.2674Y-6.0
X2.2674Y-6.04
X2.2674Y-6.08
X2.2674Y-6.12
X2.3074Y-5.68
X2.3074Y-5.72
X2.3074Y-5.76
X2.3074Y-5.8
X2.3074Y-5.84
X2.3074Y-5.88
X2.3074Y-5.92
X2.3074Y-5.96
X2.3074Y-6.0
X2.3074Y-6.04
X2.3074Y-6.08
X2.3074Y-6.12
X2.4674Y-5.68
X2.4674Y-5.72
X2.4674Y-5.76
X2.4674Y-5.8
X2.4674Y-5.84
X2.4674Y-5.88
X2.4674Y-5.92
X2.4674Y-5.96
X2.4674Y-6.0
X2.4674Y-6.04
X2.4674Y-6.08
X2.4674Y-6.12
X2.4674Y-6.16
X2.4674Y-6.2
X2.4674Y-6.24
X2.5074Y-5.68
X2.5074Y-5.72
X2.5074Y-5.76
X2.5074Y-5.8
X2.5074Y-5.84
X2.5074Y-5.88
X2.5074Y-5.92
X2.5074Y-5.96
X2.5074Y-6.0
X2.5074Y-6.04
X2.5074Y-6.08
X2.5074Y-6.12
X2.5074Y-6.16
X2.5074Y-6.2
X2.5074Y-6.24
X2.6924Y-3.5074
X2.74Y-4.23
X2.81Y-4.23
X2.91Y-4.28
X3.02Y-4.32
X3.08Y-4.32
X3.9874Y-3.56
X4.29Y-3.215
X4.44Y-3.2
X4.46Y-4.365
X4.48Y-2.66
X4.49Y-3.26
X4.5Y-2.58
X4.57Y-3.182
X4.73Y-3.47
X4.86Y-1.16
X4.91Y-4.49
X5.01Y-0.97
X5.0613Y-2.9613
X5.0624Y-5.0124
X5.08Y-2.52
X5.1874Y-5.0124
X5.205Y-2.5
X5.2174Y-3.9
X5.2374Y-1.81
X5.2424Y-1.915
X5.2424Y-1.975
X5.2424Y-2.035
X5.2424Y-2.185
X5.2424Y-2.235
X5.3074Y-3.9
X5.3124Y-5.0124
X5.34Y-2.57
X5.35Y-2.51
X5.375Y-2.28
X5.39Y-3.99
X5.4Y-2.36
X5.41Y-3.17
X5.4174Y-2.46
X5.44Y-3.9
X5.4499Y-5.0749
X5.47Y-4.05
X5.4774Y-2.525
X5.51Y-3.07
X5.58Y-2.4
X5.58Y-2.98
X5.61Y-3.6
X5.64Y-4.48
X5.68Y-3.46
X5.69Y-2.86
X5.73Y-2.73
X5.77Y-2.86
X5.83Y-3.17
X5.8374Y-2.675
X5.85Y-4.0
X5.88Y-4.03
X5.95Y-3.55
X5.99Y-1.5898
X6.02Y-5.1
X6.15Y-3.75
X6.175Y-5.1
X8.17Y-0.97
X8.295Y-1.47
X8.61Y-3.66
T3
X0.8488Y-0.9374
X0.8488Y-6.1474
X0.8748Y-0.8748
X0.8748Y-1.0
X0.8748Y-6.0848
X0.8748Y-6.21
X0.9374Y-0.8488
X0.9374Y-1.026
X0.9374Y-6.0588
X0.9374Y-6.236
X1.0Y-0.8748
X1.0Y-1.0
X1.0Y-6.0848
X1.0Y-6.21
X1.026Y-0.9374
X1.026Y-6.1474
X3.2464Y-4.66
X3.2724Y-4.5974
X3.2724Y-4.7226
X3.335Y-4.5714
X3.335Y-4.7486
X3.3976Y-4.5974
X3.3976Y-4.7226
X3.4236Y-4.66
X4.4614Y-0.94
X4.4874Y-0.8774
X4.4874Y-1.0026
X4.55Y-0.8514
X4.55Y-1.0286
X4.6126Y-0.8774
X4.6126Y-1.0026
X4.6386Y-0.94
X6.2602Y-4.85
X6.2862Y-4.7874
X6.2862Y-4.9126
X6.3488Y-4.7614
X6.3488Y-4.9386
X6.4115Y-4.7874
X6.4115Y-4.9126
X6.4374Y-4.85
X8.4238Y-0.9388
X8.4238Y-6.1474
X8.4498Y-0.8762
X8.4498Y-1.0015
X8.4498Y-6.0848
X8.4498Y-6.21
X8.5124Y-0.8502
X8.5124Y-1.0274
X8.5124Y-6.0588
X8.5124Y-6.236
X8.575Y-0.8762
X8.575Y-1.0015
X8.575Y-6.0848
X8.575Y-6.21
X8.601Y-0.9388
X8.601Y-6.1474
T4
X4.01Y-4.49
X4.0691Y-4.49
X4.1394Y-3.12
X4.1984Y-3.12
X4.7809Y-4.01
X4.84Y-4.01
X5.42Y-3.3191
X5.42Y-3.3781
X5.58Y-2.7809
X5.58Y-2.84
T5
X3.8674Y-4.0674
X3.95Y-4.27
X4.0674Y-4.0674
X4.15Y-4.27
X4.36Y-3.95
X4.36Y-4.07
X4.56Y-3.95
X4.56Y-4.07
X4.76Y-3.62
X4.76Y-3.82
X4.87Y-3.62
X4.87Y-3.82
X5.58Y-3.92
X5.78Y-3.92
X6.04Y-3.49
X6.24Y-3.49
X6.35Y-1.74
X6.55Y-1.74
X6.64Y-3.51
X6.84Y-3.51
X7.13Y-2.14
X7.13Y-4.175
X7.33Y-2.14
X7.33Y-4.175
X7.845Y-0.91
X8.045Y-0.91
X8.405Y-1.22
X8.605Y-1.22
T6
X0.88Y-5.52
X0.9374Y-5.69
X0.9374Y-5.79
X0.9374Y-5.89
X1.0574Y-5.13
X1.0574Y-5.53
X1.1374Y-5.72
X1.1374Y-5.8184
X1.2678Y-5.7178
X1.2678Y-5.8178
X1.2678Y-5.9178
X1.2678Y-6.0178
X1.28Y-5.52
X1.3674Y-6.23
X1.5678Y-5.7178
X1.5678Y-5.8178
X1.5678Y-5.9178
X1.5678Y-6.0178
X1.6774Y-5.6574
X1.6774Y-5.7774
X1.6774Y-5.8974
X1.6774Y-6.0174
X1.7674Y-6.23
X2.0282Y-6.14
X2.0774Y-5.6574
X2.0774Y-5.7774
X2.0774Y-5.8974
X2.0774Y-6.0174
X2.1266Y-6.14
X2.6372Y-2.7186
X2.6402Y-4.0924
X2.9046Y-4.7188
X2.92Y-3.0014
X2.9424Y-3.2674
X3.1874Y-4.436
X3.2198Y-4.2476
X3.3424Y-3.2674
X3.562Y-2.937
X3.562Y-3.037
X3.562Y-3.137
X3.562Y-3.237
X3.562Y-4.262
X3.562Y-4.362
X3.562Y-4.462
X3.562Y-4.562
X3.5747Y-4.0074
X3.7086Y-2.69
X3.7125Y-4.0074
X3.8464Y-2.69
X3.857Y-3.5576
X3.857Y-3.6576
X3.857Y-3.7976
X3.857Y-3.8976
X3.862Y-2.937
X3.862Y-3.037
X3.862Y-3.137
X3.862Y-3.237
X3.862Y-4.262
X3.862Y-4.362
X3.862Y-4.462
X3.862Y-4.562
X4.157Y-3.5576
X4.157Y-3.6576
X4.157Y-3.7976
X4.157Y-3.8976
X4.34Y-2.645
X4.34Y-2.77
X4.357Y-3.1168
X4.357Y-3.2168
X4.357Y-3.3168
X4.357Y-3.4168
X4.357Y-3.5168
X4.357Y-3.6168
X4.357Y-3.7168
X4.357Y-3.8168
X4.3596Y-4.1896
X4.3596Y-4.2896
X4.3596Y-4.3896
X4.3596Y-4.4896
X4.41Y-2.94
X4.51Y-2.94
X4.61Y-2.94
X4.64Y-2.645
X4.64Y-2.77
X4.657Y-3.1168
X4.657Y-3.2168
X4.657Y-3.3168
X4.657Y-3.4168
X4.657Y-3.5168
X4.657Y-3.6168
X4.657Y-3.7168
X4.657Y-3.8168
X4.6596Y-4.1896
X4.6596Y-4.2896
X4.6596Y-4.3896
X4.6596Y-4.4896
X4.67Y-4.66
X4.75Y-4.49
X4.7624Y-3.3074
X4.7624Y-3.4058
X4.77Y-4.66
X4.82Y-2.75
X4.82Y-2.85
X4.82Y-2.95
X4.87Y-4.66
X4.92Y-3.37
X5.02Y-4.68
X5.05Y-4.49
X5.075Y-2.64
X5.1Y-3.48
X5.1Y-3.78
X5.19Y-4.0484
X5.19Y-4.1469
X5.22Y-3.37
X5.2339Y-3.2461
X5.32Y-4.68
X5.375Y-2.64
X5.4461Y-3.0339
X5.45Y-4.2
X5.75Y-4.2
X5.9254Y-3.6248
X5.9254Y-3.7248
X6.2254Y-3.6248
X6.2254Y-3.7248
X6.375Y-1.8748
X6.375Y-1.9748
X6.3754Y-4.1998
X6.3754Y-4.2998
X6.59Y-5.05
X6.675Y-1.8748
X6.675Y-1.9748
X6.6754Y-4.1998
X6.6754Y-4.2998
X6.6872Y-1.3
X6.6872Y-1.65
X6.6874Y-4.9526
X6.825Y-1.3
X6.825Y-1.65
X7.1416Y-1.99
X7.15Y-4.58
X7.3384Y-1.99
X7.55Y-4.58
X7.76Y-3.5149
X7.76Y-3.6527
X8.05Y-1.375
X8.05Y-1.775
X8.12Y-3.5149
X8.12Y-3.6527
X8.17Y-1.465
X8.17Y-1.565
X8.17Y-1.665
X8.1952Y-0.8404
X8.1952Y-1.1404
X8.2952Y-0.8404
X8.2952Y-1.1404
X8.3622Y-1.96
X8.3622Y-2.32
X8.3622Y-2.68
X8.3622Y-3.04
X8.3622Y-3.4
X8.5Y-1.96
X8.5Y-2.32
X8.5Y-2.68
X8.5Y-3.04
X8.5Y-3.4
T7
X2.19Y-2.18
X2.49Y-2.18
X2.6Y-3.88
X2.76Y-4.58
X2.76Y-4.88
X2.78Y-3.13
X2.9Y-3.88
X3.08Y-3.13
X3.5574Y-4.7074
X3.5624Y-3.3874
X3.8574Y-4.7074
X3.8624Y-3.3874
X5.925Y-3.875
X6.025Y-3.875
X8.295Y-1.35
X8.3389Y-1.7161
X8.5511Y-1.5039
X8.595Y-1.35
T8
X2.6674Y-5.0664
X2.6674Y-5.2632
X2.9974Y-0.8921
X2.9974Y-1.4827
X3.3974Y-0.8921
X3.3974Y-1.4827
X3.7974Y-0.8921
X3.7974Y-1.4827
X4.1974Y-0.8921
X4.1974Y-1.4827
X4.6874Y-1.29
X4.6874Y-1.39
X4.7874Y-1.29
X4.7874Y-1.39
X4.81Y-1.06
X4.8874Y-1.29
X4.8874Y-1.39
X4.9874Y-1.29
X4.9874Y-1.39
X5.0874Y-1.29
X5.0874Y-1.39
X5.1874Y-1.29
X5.1874Y-1.39
X5.2874Y-1.29
X5.2874Y-1.39
X5.3874Y-1.29
X5.3874Y-1.39
X5.4874Y-1.29
X5.4874Y-1.39
X5.5874Y-1.29
X5.5874Y-1.39
X5.76Y-4.34
X5.76Y-4.44
X5.76Y-4.54
X5.76Y-4.64
X5.86Y-4.34
X5.86Y-4.44
X5.86Y-4.54
X5.86Y-4.64
X6.05Y-1.4758
X6.05Y-1.775
X7.2194Y-5.3783
X7.2194Y-5.772
X7.22Y-5.8268
X7.22Y-6.2205
X7.7124Y-6.0624
X7.9093Y-5.9301
X8.1061Y-6.0624
T10
X0.9624Y-4.6874
X1.1624Y-4.6874
X6.82Y-4.42
X6.82Y-4.52
X6.82Y-4.62
T11
X4.1374Y-4.6624
X4.2374Y-4.6624
X4.3374Y-4.6624
X4.3574Y-5.0216
X4.3574Y-5.9074
X4.4374Y-4.6624
X7.18Y-4.36
X8.18Y-4.36
T12
X4.3522Y-6.1374
X4.5569Y-6.1374
X5.3679Y-6.1374
X5.5726Y-6.1374
T13
X1.5383Y-4.6674
X1.7528Y-4.6674
X1.9674Y-4.6674
X4.8624Y-5.0122
X4.8624Y-5.6122
X5.7624Y-5.0122
X5.7624Y-5.6122
T14
X1.4874Y-4.878
X1.4874Y-5.5
X1.5137Y-1.4874
X1.9074Y-1.4874
X7.02Y-5.5
T15
X7.08Y-2.61
X7.08Y-4.73
T16
X0.9374Y-0.9374
X0.9374Y-6.1474
X3.0244Y-2.3874
X3.0244Y-2.6874
X3.0244Y-3.4874
X3.0244Y-3.7874
X3.335Y-4.66
X4.55Y-0.94
X6.3488Y-4.85
X7.57Y-1.534
X7.57Y-1.845
X7.57Y-2.9645
X7.57Y-3.2755
X7.78Y-2.0445
X7.78Y-2.3555
X7.78Y-2.5045
X7.78Y-2.8155
X8.5124Y-0.9388
X8.5124Y-6.1474
T17
X7.47Y-6.18
T18
X6.4244Y-2.1874
X6.4244Y-2.3874
X6.4244Y-2.7874
X6.4244Y-2.9874
X6.4244Y-3.1874
X6.4244Y-3.3874
X6.4244Y-3.7874
X6.4244Y-3.9874
T19
X6.36Y-1.08
X7.21Y-1.085
T6
G00X2.5374Y-2.3012
M15
G01X2.5374Y-2.2736
M16
G05
G00X2.5374Y-2.5157
M15
G01X2.5374Y-2.4882
M16
G05
G00X2.5374Y-2.7303
M15
G01X2.5374Y-2.7028
M16
G05
G00X2.5374Y-2.9762
M15
G01X2.5374Y-2.9486
M16
G05
G00X2.5374Y-3.1907
M15
G01X2.5374Y-3.1632
M16
G05
G00X2.5374Y-3.4053
M15
G01X2.5374Y-3.3778
M16
G05
G00X2.5374Y-3.6762
M15
G01X2.5374Y-3.6486
M16
G05
G00X2.5374Y-3.8907
M15
G01X2.5374Y-3.8632
M16
G05
G00X2.5374Y-4.1053
M15
G01X2.5374Y-4.0778
M16
G05
G00X2.5374Y-4.3762
M15
G01X2.5374Y-4.3486
M16
G05
G00X2.5374Y-4.5907
M15
G01X2.5374Y-4.5632
M16
G05
G00X2.5374Y-4.8053
M15
G01X2.5374Y-4.7778
M16
G05
G00X6.85Y-1.9562
M15
G01X6.85Y-1.9838
M16
G05
G00X6.85Y-2.1708
M15
G01X6.85Y-2.1983
M16
G05
G00X6.85Y-2.3854
M15
G01X6.85Y-2.4129
M16
G05
G00X6.85Y-3.6862
M15
G01X6.85Y-3.7138
M16
G05
G00X6.85Y-3.9008
M15
G01X6.85Y-3.9283
M16
G05
G00X6.85Y-4.1154
M15
G01X6.85Y-4.1429
M16
G05
G00X7.5892Y-1.105
M15
G01X7.5617Y-1.105
M16
G05
G00X7.8038Y-1.105
M15
G01X7.7762Y-1.105
M16
G05
G00X8.0183Y-1.105
M15
G01X7.9908Y-1.105
M16
G05
T9
G00X3.3689Y-5.3639
M15
G01X3.1189Y-5.3639
M16
G05
G00X3.3689Y-6.0765
M15
G01X3.1189Y-6.0765
M16
G05
G00X3.9319Y-5.3639
M15
G01X3.6819Y-5.3639
M16
G05
G00X3.8974Y-5.8924
M15
G01X3.8974Y-6.1424
M16
G05
T11
G00X6.27Y-5.6661
M15
G01X6.27Y-5.9339
M16
G05
G00X6.77Y-5.6661
M15
G01X6.77Y-5.9339
M16
G05
T0
M30
