%TF.GenerationSoftware,KiCad,Pcbnew,7.0.9*%
%TF.CreationDate,2024-03-27T11:04:52+01:00*%
%TF.ProjectId,supersmymps v2,73757065-7273-46d7-996d-70732076322e,rev?*%
%TF.SameCoordinates,Original*%
%TF.FileFunction,Soldermask,Bot*%
%TF.FilePolarity,Negative*%
%FSLAX46Y46*%
G04 Gerber Fmt 4.6, Leading zero omitted, Abs format (unit mm)*
G04 Created by KiCad (PCBNEW 7.0.9) date 2024-03-27 11:04:52*
%MOMM*%
%LPD*%
G01*
G04 APERTURE LIST*
G04 Aperture macros list*
%AMRoundRect*
0 Rectangle with rounded corners*
0 $1 Rounding radius*
0 $2 $3 $4 $5 $6 $7 $8 $9 X,Y pos of 4 corners*
0 Add a 4 corners polygon primitive as box body*
4,1,4,$2,$3,$4,$5,$6,$7,$8,$9,$2,$3,0*
0 Add four circle primitives for the rounded corners*
1,1,$1+$1,$2,$3*
1,1,$1+$1,$4,$5*
1,1,$1+$1,$6,$7*
1,1,$1+$1,$8,$9*
0 Add four rect primitives between the rounded corners*
20,1,$1+$1,$2,$3,$4,$5,0*
20,1,$1+$1,$4,$5,$6,$7,0*
20,1,$1+$1,$6,$7,$8,$9,0*
20,1,$1+$1,$8,$9,$2,$3,0*%
%AMHorizOval*
0 Thick line with rounded ends*
0 $1 width*
0 $2 $3 position (X,Y) of the first rounded end (center of the circle)*
0 $4 $5 position (X,Y) of the second rounded end (center of the circle)*
0 Add line between two ends*
20,1,$1,$2,$3,$4,$5,0*
0 Add two circle primitives to create the rounded ends*
1,1,$1,$2,$3*
1,1,$1,$4,$5*%
%AMRotRect*
0 Rectangle, with rotation*
0 The origin of the aperture is its center*
0 $1 length*
0 $2 width*
0 $3 Rotation angle, in degrees counterclockwise*
0 Add horizontal line*
21,1,$1,$2,0,0,$3*%
G04 Aperture macros list end*
%ADD10C,0.150000*%
%ADD11C,1.600000*%
%ADD12O,1.600000X1.600000*%
%ADD13R,4.000000X4.000000*%
%ADD14C,4.000000*%
%ADD15R,1.600000X1.600000*%
%ADD16C,1.400000*%
%ADD17O,1.400000X1.400000*%
%ADD18C,0.800000*%
%ADD19C,6.000000*%
%ADD20C,12.000000*%
%ADD21R,2.000000X2.000000*%
%ADD22C,2.000000*%
%ADD23C,1.440000*%
%ADD24R,1.700000X1.700000*%
%ADD25O,1.700000X1.700000*%
%ADD26RoundRect,0.250000X-0.600000X0.600000X-0.600000X-0.600000X0.600000X-0.600000X0.600000X0.600000X0*%
%ADD27C,1.700000*%
%ADD28HorizOval,1.600000X0.000000X0.000000X0.000000X0.000000X0*%
%ADD29C,2.300000*%
%ADD30C,3.000000*%
%ADD31R,1.800000X1.800000*%
%ADD32O,1.800000X1.800000*%
%ADD33R,4.500000X2.500000*%
%ADD34O,4.500000X2.500000*%
%ADD35C,2.400000*%
%ADD36O,2.400000X2.400000*%
%ADD37R,1.200000X1.200000*%
%ADD38C,1.200000*%
%ADD39HorizOval,1.600000X0.000000X0.000000X0.000000X0.000000X0*%
%ADD40C,3.800000*%
%ADD41R,2.500000X4.500000*%
%ADD42O,2.500000X4.500000*%
%ADD43O,5.000000X10.000000*%
%ADD44RotRect,1.600000X1.600000X225.000000*%
%ADD45R,3.000000X3.000000*%
%ADD46O,2.000000X2.000000*%
%ADD47HorizOval,1.600000X0.000000X0.000000X0.000000X0.000000X0*%
%ADD48C,1.800000*%
%ADD49C,5.000000*%
%ADD50RotRect,1.800000X1.800000X45.000000*%
%ADD51HorizOval,1.800000X0.000000X0.000000X0.000000X0.000000X0*%
%ADD52R,3.010000X9.360000*%
%ADD53RoundRect,0.752500X3.927500X0.752500X-3.927500X0.752500X-3.927500X-0.752500X3.927500X-0.752500X0*%
%ADD54R,1.500000X1.500000*%
%ADD55C,1.500000*%
%ADD56R,2.000000X3.000000*%
%ADD57O,2.000000X3.000000*%
%ADD58R,2.000000X1.905000*%
%ADD59O,2.000000X1.905000*%
G04 APERTURE END LIST*
D10*
X193548000Y-21336000D02*
X203708000Y-21336000D01*
X205232000Y-22860000D01*
X205232000Y-40894000D01*
X205232000Y-49276000D01*
X209042000Y-53086000D01*
X214122000Y-53086000D01*
X217424000Y-56388000D01*
X217170000Y-105918000D01*
X165608000Y-105918000D01*
X160020000Y-101092000D01*
X160020000Y-20574000D01*
X193548000Y-20320000D01*
X193548000Y-21336000D01*
G36*
X193548000Y-21336000D02*
G01*
X203708000Y-21336000D01*
X205232000Y-22860000D01*
X205232000Y-40894000D01*
X205232000Y-49276000D01*
X209042000Y-53086000D01*
X214122000Y-53086000D01*
X217424000Y-56388000D01*
X217170000Y-105918000D01*
X165608000Y-105918000D01*
X160020000Y-101092000D01*
X160020000Y-20574000D01*
X193548000Y-20320000D01*
X193548000Y-21336000D01*
G37*
D11*
%TO.C,R38*%
X129540000Y-88392000D03*
D12*
X129540000Y-96012000D03*
%TD*%
D11*
%TO.C,R2*%
X26858000Y-140462000D03*
D12*
X26858000Y-130302000D03*
%TD*%
D13*
%TO.C,C9*%
X48448000Y-37780000D03*
D14*
X38448000Y-37780000D03*
%TD*%
D15*
%TO.C,U16*%
X150505000Y-92070000D03*
D12*
X150505000Y-94610000D03*
X158125000Y-94610000D03*
X158125000Y-92070000D03*
%TD*%
D11*
%TO.C,C24*%
X186396000Y-50546000D03*
X181396000Y-50546000D03*
%TD*%
D16*
%TO.C,R19*%
X115824000Y-100330000D03*
D17*
X110744000Y-100330000D03*
%TD*%
D18*
%TO.C,REF\u002A\u002A*%
X213965000Y-156144000D03*
X214624010Y-154553010D03*
X214624010Y-157734990D03*
X216215000Y-153894000D03*
D19*
X216215000Y-156144000D03*
D18*
X216215000Y-158394000D03*
X217805990Y-154553010D03*
X217805990Y-157734990D03*
X218465000Y-156144000D03*
%TD*%
D16*
%TO.C,R21*%
X100330000Y-108458000D03*
D17*
X105410000Y-108458000D03*
%TD*%
D15*
%TO.C,C27*%
X212400000Y-86360000D03*
D11*
X215900000Y-86360000D03*
%TD*%
D16*
%TO.C,R39*%
X173736000Y-89154000D03*
D17*
X168656000Y-89154000D03*
%TD*%
D15*
%TO.C,C28*%
X197104000Y-89279349D03*
D11*
X197104000Y-92779349D03*
%TD*%
D20*
%TO.C,H5*%
X161544000Y-27432000D03*
%TD*%
D16*
%TO.C,R35*%
X141732000Y-99568000D03*
D17*
X146812000Y-99568000D03*
%TD*%
D21*
%TO.C,BZ1*%
X153670000Y-45085000D03*
D22*
X153670000Y-37485000D03*
%TD*%
D23*
%TO.C,RV4*%
X118618000Y-118364000D03*
X121158000Y-118364000D03*
X123698000Y-118364000D03*
%TD*%
D16*
%TO.C,R36*%
X123698000Y-91948000D03*
D17*
X123698000Y-97028000D03*
%TD*%
D24*
%TO.C,J2*%
X146304000Y-110236000D03*
D25*
X148844000Y-110236000D03*
X146304000Y-112776000D03*
X148844000Y-112776000D03*
X146304000Y-115316000D03*
X148844000Y-115316000D03*
X146304000Y-117856000D03*
X148844000Y-117856000D03*
%TD*%
D15*
%TO.C,C23*%
X173355000Y-41910000D03*
D11*
X169855000Y-41910000D03*
%TD*%
D26*
%TO.C,J3*%
X141920000Y-32766000D03*
D27*
X141920000Y-35306000D03*
X139380000Y-32766000D03*
X139380000Y-35306000D03*
X136840000Y-32766000D03*
X136840000Y-35306000D03*
X134300000Y-32766000D03*
X134300000Y-35306000D03*
X131760000Y-32766000D03*
X131760000Y-35306000D03*
X129220000Y-32766000D03*
X129220000Y-35306000D03*
X126680000Y-32766000D03*
X126680000Y-35306000D03*
X124140000Y-32766000D03*
X124140000Y-35306000D03*
X121600000Y-32766000D03*
X121600000Y-35306000D03*
X119060000Y-32766000D03*
X119060000Y-35306000D03*
%TD*%
D11*
%TO.C,R26*%
X80960000Y-112673898D03*
D28*
X73775795Y-119858103D03*
%TD*%
D11*
%TO.C,C7*%
X120965000Y-86508000D03*
X120965000Y-84008000D03*
%TD*%
D24*
%TO.C,J5*%
X122174000Y-26924000D03*
%TD*%
D29*
%TO.C,F1*%
X141545000Y-155890000D03*
X136345000Y-155890000D03*
X115745000Y-155890000D03*
X110545000Y-155890000D03*
%TD*%
D15*
%TO.C,U12*%
X210698000Y-21346000D03*
D12*
X208158000Y-21346000D03*
X208158000Y-28966000D03*
X210698000Y-28966000D03*
%TD*%
D18*
%TO.C,REF\u002A\u002A*%
X213965000Y-23846000D03*
X214624010Y-22255010D03*
X214624010Y-25436990D03*
X216215000Y-21596000D03*
D19*
X216215000Y-23846000D03*
D18*
X216215000Y-26096000D03*
X217805990Y-22255010D03*
X217805990Y-25436990D03*
X218465000Y-23846000D03*
%TD*%
D30*
%TO.C,C17*%
X76134000Y-22660000D03*
X76134000Y-37660000D03*
%TD*%
D31*
%TO.C,D9*%
X55626000Y-55372000D03*
D32*
X63246000Y-55372000D03*
%TD*%
D11*
%TO.C,R34*%
X138330077Y-77061923D03*
D28*
X132941923Y-82450077D03*
%TD*%
D11*
%TO.C,R3*%
X124968000Y-85598000D03*
D12*
X132588000Y-85598000D03*
%TD*%
D33*
%TO.C,Q3*%
X64450000Y-86145000D03*
D34*
X64450000Y-80695000D03*
X64450000Y-75245000D03*
%TD*%
D35*
%TO.C,R32*%
X182372000Y-110744000D03*
D36*
X207772000Y-110744000D03*
%TD*%
D11*
%TO.C,C2*%
X28890000Y-147788000D03*
X28890000Y-145288000D03*
%TD*%
D37*
%TO.C,C11*%
X101854000Y-114046000D03*
D38*
X103354000Y-114046000D03*
%TD*%
D11*
%TO.C,R28*%
X204470000Y-34925000D03*
D12*
X204470000Y-45085000D03*
%TD*%
D11*
%TO.C,C3*%
X51516000Y-155956000D03*
X54016000Y-155956000D03*
%TD*%
D37*
%TO.C,C1*%
X121436000Y-101854000D03*
D38*
X122936000Y-101854000D03*
%TD*%
D15*
%TO.C,U8*%
X98095000Y-82220000D03*
D12*
X98095000Y-79680000D03*
X98095000Y-77140000D03*
X98095000Y-74600000D03*
X90475000Y-74600000D03*
X90475000Y-77140000D03*
X90475000Y-79680000D03*
X90475000Y-82220000D03*
%TD*%
D11*
%TO.C,R6*%
X110236000Y-67183000D03*
D12*
X117856000Y-67183000D03*
%TD*%
D33*
%TO.C,Q4*%
X64450000Y-103925000D03*
D34*
X64450000Y-98475000D03*
X64450000Y-93025000D03*
%TD*%
D11*
%TO.C,R8*%
X42606000Y-143698000D03*
D12*
X52766000Y-143698000D03*
%TD*%
D15*
%TO.C,C26*%
X212400000Y-58928000D03*
D11*
X215900000Y-58928000D03*
%TD*%
D15*
%TO.C,U2*%
X32202000Y-145232000D03*
D12*
X32202000Y-147772000D03*
X32202000Y-150312000D03*
X32202000Y-152852000D03*
X39822000Y-152852000D03*
X39822000Y-150312000D03*
X39822000Y-147772000D03*
X39822000Y-145232000D03*
%TD*%
D15*
%TO.C,C13*%
X94296651Y-101788000D03*
D11*
X90796651Y-101788000D03*
%TD*%
%TO.C,R25*%
X81782355Y-107890201D03*
D39*
X67061645Y-103945799D03*
%TD*%
D18*
%TO.C,REF\u002A\u002A*%
X113320000Y-23876000D03*
X113979010Y-22285010D03*
X113979010Y-25466990D03*
X115570000Y-21626000D03*
D19*
X115570000Y-23876000D03*
D18*
X115570000Y-26126000D03*
X117160990Y-22285010D03*
X117160990Y-25466990D03*
X117820000Y-23876000D03*
%TD*%
D15*
%TO.C,C20*%
X212400000Y-68072000D03*
D11*
X215900000Y-68072000D03*
%TD*%
D40*
%TO.C,REF\u002A\u002A*%
X179832000Y-66294000D03*
%TD*%
D14*
%TO.C,L5*%
X192278000Y-83198000D03*
X192278000Y-75298000D03*
%TD*%
D15*
%TO.C,D2*%
X138430000Y-106680000D03*
D12*
X146050000Y-106680000D03*
%TD*%
D15*
%TO.C,C29*%
X212400000Y-49784000D03*
D11*
X215900000Y-49784000D03*
%TD*%
D15*
%TO.C,U5*%
X105588000Y-92903000D03*
D12*
X105588000Y-90363000D03*
X97968000Y-90363000D03*
X97968000Y-92903000D03*
%TD*%
D14*
%TO.C,L3*%
X197612000Y-59830000D03*
X197612000Y-51930000D03*
%TD*%
D23*
%TO.C,RV2*%
X122428000Y-74930000D03*
X122428000Y-72390000D03*
X122428000Y-69850000D03*
%TD*%
D15*
%TO.C,C19*%
X212400000Y-77216000D03*
D11*
X215900000Y-77216000D03*
%TD*%
D15*
%TO.C,C21*%
X131826000Y-102830621D03*
D11*
X131826000Y-105330621D03*
%TD*%
%TO.C,R4*%
X128270000Y-114046000D03*
D12*
X120650000Y-114046000D03*
%TD*%
D16*
%TO.C,R22*%
X103312000Y-103312000D03*
D17*
X98232000Y-103312000D03*
%TD*%
D33*
%TO.C,Q5*%
X64450000Y-121705000D03*
D34*
X64450000Y-116255000D03*
X64450000Y-110805000D03*
%TD*%
D41*
%TO.C,Q7*%
X203316000Y-28067000D03*
D42*
X197866000Y-28067000D03*
X192416000Y-28067000D03*
%TD*%
D43*
%TO.C,J1*%
X159258000Y-147320000D03*
X171958000Y-147320000D03*
D14*
X178308000Y-139700000D03*
%TD*%
D23*
%TO.C,RV3*%
X112014000Y-74676000D03*
X114554000Y-74676000D03*
X117094000Y-74676000D03*
%TD*%
%TO.C,RV1*%
X23810000Y-149606000D03*
X23810000Y-147066000D03*
X23810000Y-144526000D03*
%TD*%
D15*
%TO.C,U14*%
X118354000Y-114036000D03*
D12*
X118354000Y-111496000D03*
X118354000Y-108956000D03*
X118354000Y-106416000D03*
X110734000Y-106416000D03*
X110734000Y-108956000D03*
X110734000Y-111496000D03*
X110734000Y-114036000D03*
%TD*%
D14*
%TO.C,L2*%
X197612000Y-71514000D03*
X197612000Y-63614000D03*
%TD*%
D16*
%TO.C,R40*%
X166370000Y-44196000D03*
D17*
X161290000Y-44196000D03*
%TD*%
D30*
%TO.C,C14*%
X106614000Y-22660000D03*
X106614000Y-37660000D03*
%TD*%
D11*
%TO.C,R5*%
X42606000Y-146746000D03*
D12*
X52766000Y-146746000D03*
%TD*%
D18*
%TO.C,REF\u002A\u002A*%
X82459000Y-118364000D03*
X83118010Y-116773010D03*
X83118010Y-119954990D03*
X84709000Y-116114000D03*
D19*
X84709000Y-118364000D03*
D18*
X84709000Y-120614000D03*
X86299990Y-116773010D03*
X86299990Y-119954990D03*
X86959000Y-118364000D03*
%TD*%
D15*
%TO.C,U13*%
X161935000Y-106675000D03*
D12*
X161935000Y-109215000D03*
X169555000Y-109215000D03*
X169555000Y-106675000D03*
%TD*%
D16*
%TO.C,R29*%
X218567000Y-30988000D03*
D17*
X213487000Y-30988000D03*
%TD*%
D11*
%TO.C,R14*%
X44892000Y-158242000D03*
D12*
X34732000Y-158242000D03*
%TD*%
D20*
%TO.C,H4*%
X183134000Y-27559000D03*
%TD*%
D11*
%TO.C,R1*%
X32512000Y-140208000D03*
D12*
X22352000Y-140208000D03*
%TD*%
D44*
%TO.C,C18*%
X169860874Y-125795126D03*
D11*
X167386000Y-128270000D03*
%TD*%
D40*
%TO.C,*%
X179832000Y-120142000D03*
%TD*%
D15*
%TO.C,C25*%
X173355000Y-33020000D03*
D11*
X169855000Y-33020000D03*
%TD*%
D33*
%TO.C,Q10*%
X173990000Y-50038000D03*
D34*
X173990000Y-55488000D03*
X173990000Y-60938000D03*
%TD*%
D33*
%TO.C,Q9*%
X173990000Y-93980000D03*
D34*
X173990000Y-99430000D03*
X173990000Y-104880000D03*
%TD*%
D41*
%TO.C,Q1*%
X39072000Y-118552000D03*
D42*
X44522000Y-118552000D03*
X49972000Y-118552000D03*
%TD*%
D45*
%TO.C,FL1*%
X146365000Y-142550000D03*
D30*
X146365000Y-127310000D03*
X123505000Y-127310000D03*
X123505000Y-142550000D03*
%TD*%
D11*
%TO.C,R13*%
X52766000Y-152842000D03*
D12*
X42606000Y-152842000D03*
%TD*%
D16*
%TO.C,R33*%
X204343000Y-23114000D03*
D17*
X199263000Y-23114000D03*
%TD*%
D11*
%TO.C,R7*%
X135128000Y-118872000D03*
D12*
X127508000Y-118872000D03*
%TD*%
D21*
%TO.C,C8*%
X67752000Y-133685677D03*
D22*
X67752000Y-128685677D03*
%TD*%
D16*
%TO.C,R37*%
X181102000Y-54356000D03*
D17*
X186182000Y-54356000D03*
%TD*%
D15*
%TO.C,U4*%
X118288000Y-96947000D03*
D12*
X118288000Y-94407000D03*
X118288000Y-91867000D03*
X118288000Y-89327000D03*
X118288000Y-86787000D03*
X118288000Y-84247000D03*
X118288000Y-81707000D03*
X118288000Y-79167000D03*
X110668000Y-79167000D03*
X110668000Y-81707000D03*
X110668000Y-84247000D03*
X110668000Y-86787000D03*
X110668000Y-89327000D03*
X110668000Y-91867000D03*
X110668000Y-94407000D03*
X110668000Y-96947000D03*
%TD*%
D11*
%TO.C,R24*%
X84897000Y-82992000D03*
D12*
X74737000Y-82992000D03*
%TD*%
D11*
%TO.C,R31*%
X181610000Y-116332000D03*
D12*
X191770000Y-116332000D03*
%TD*%
D11*
%TO.C,R9*%
X117856000Y-70358000D03*
D12*
X110236000Y-70358000D03*
%TD*%
D31*
%TO.C,D11*%
X210693000Y-34290000D03*
D32*
X218313000Y-34290000D03*
%TD*%
D31*
%TO.C,D5*%
X90358000Y-119568000D03*
D32*
X97978000Y-119568000D03*
%TD*%
D15*
%TO.C,U6*%
X105588000Y-98999000D03*
D12*
X105588000Y-96459000D03*
X97968000Y-96459000D03*
X97968000Y-98999000D03*
%TD*%
D11*
%TO.C,R11*%
X136525000Y-67056000D03*
D12*
X128905000Y-67056000D03*
%TD*%
D15*
%TO.C,C12*%
X97697822Y-68326000D03*
D11*
X94197822Y-68326000D03*
%TD*%
D22*
%TO.C,C5*%
X183388000Y-158000000D03*
X183388000Y-148000000D03*
%TD*%
D16*
%TO.C,R30*%
X181102000Y-106045000D03*
D17*
X186182000Y-106045000D03*
%TD*%
D22*
%TO.C,C6*%
X183373476Y-136608965D03*
X183373476Y-146608965D03*
%TD*%
D31*
%TO.C,D13*%
X70612000Y-79502000D03*
D32*
X78232000Y-79502000D03*
%TD*%
D15*
%TO.C,U9*%
X98095000Y-115875000D03*
D12*
X98095000Y-113335000D03*
X98095000Y-110795000D03*
X98095000Y-108255000D03*
X90475000Y-108255000D03*
X90475000Y-110795000D03*
X90475000Y-113335000D03*
X90475000Y-115875000D03*
%TD*%
D37*
%TO.C,C31*%
X137668000Y-84304000D03*
D38*
X137668000Y-85804000D03*
%TD*%
D35*
%TO.C,C4*%
X110678000Y-150048000D03*
X110678000Y-127548000D03*
%TD*%
D15*
%TO.C,C22*%
X206248000Y-89279349D03*
D11*
X206248000Y-92779349D03*
%TD*%
D30*
%TO.C,C16*%
X86294000Y-22660000D03*
X86294000Y-37660000D03*
%TD*%
D16*
%TO.C,R10*%
X120904000Y-97028000D03*
D17*
X120904000Y-91948000D03*
%TD*%
D21*
%TO.C,D3*%
X24445000Y-119060000D03*
D46*
X29525000Y-119060000D03*
%TD*%
D11*
%TO.C,R23*%
X74168000Y-76236103D03*
D47*
X66983795Y-69051898D03*
%TD*%
D31*
%TO.C,D8*%
X153035000Y-98425000D03*
D48*
X150495000Y-98425000D03*
%TD*%
D30*
%TO.C,C15*%
X96454000Y-22660000D03*
X96454000Y-37660000D03*
%TD*%
D31*
%TO.C,D4*%
X90485000Y-86040000D03*
D32*
X98105000Y-86040000D03*
%TD*%
D18*
%TO.C,REF\u002A\u002A*%
X21560000Y-23810000D03*
X22219010Y-22219010D03*
X22219010Y-25400990D03*
X23810000Y-21560000D03*
D19*
X23810000Y-23810000D03*
D18*
X23810000Y-26060000D03*
X25400990Y-22219010D03*
X25400990Y-25400990D03*
X26060000Y-23810000D03*
%TD*%
D37*
%TO.C,C32*%
X141732000Y-70636000D03*
D38*
X141732000Y-72136000D03*
%TD*%
D22*
%TO.C,J4*%
X195895000Y-153985000D03*
X200895000Y-150625000D03*
X205895000Y-153985000D03*
%TD*%
D19*
%TO.C,T1*%
X85000000Y-53020000D03*
X85000000Y-103820000D03*
X155000000Y-53020000D03*
X155000000Y-103820000D03*
D49*
X76820000Y-60640000D03*
X76820000Y-68260000D03*
X76820000Y-88580000D03*
X76820000Y-96200000D03*
X163180000Y-55560000D03*
X163180000Y-60640000D03*
X163180000Y-70800000D03*
X163180000Y-75880000D03*
X163180000Y-80960000D03*
X163180000Y-86040000D03*
X163180000Y-96200000D03*
X163180000Y-101280000D03*
%TD*%
D30*
%TO.C,L1*%
X37780000Y-139700000D03*
X37780000Y-123900000D03*
%TD*%
D18*
%TO.C,REF\u002A\u002A*%
X21560000Y-156144000D03*
X22219010Y-154553010D03*
X22219010Y-157734990D03*
X23810000Y-153894000D03*
D19*
X23810000Y-156144000D03*
D18*
X23810000Y-158394000D03*
X25400990Y-154553010D03*
X25400990Y-157734990D03*
X26060000Y-156144000D03*
%TD*%
D50*
%TO.C,D12*%
X211808924Y-43588077D03*
D51*
X217197078Y-38199923D03*
%TD*%
D31*
%TO.C,D15*%
X70104000Y-116332000D03*
D32*
X70104000Y-123952000D03*
%TD*%
D52*
%TO.C,D1*%
X98994000Y-152842000D03*
D53*
X82394000Y-154342000D03*
X82394000Y-136242000D03*
X96694000Y-136242000D03*
%TD*%
D37*
%TO.C,C10*%
X106640599Y-79248000D03*
D38*
X105140599Y-79248000D03*
%TD*%
D16*
%TO.C,R20*%
X115824000Y-103378000D03*
D17*
X110744000Y-103378000D03*
%TD*%
D16*
%TO.C,R41*%
X158496000Y-88646000D03*
D17*
X153416000Y-88646000D03*
%TD*%
D11*
%TO.C,R12*%
X52766000Y-149794000D03*
D12*
X42606000Y-149794000D03*
%TD*%
D15*
%TO.C,U15*%
X161925000Y-47620000D03*
D12*
X161925000Y-50160000D03*
X169545000Y-50160000D03*
X169545000Y-47620000D03*
%TD*%
D54*
%TO.C,Q8*%
X207518000Y-37211000D03*
D55*
X207518000Y-39751000D03*
X207518000Y-42291000D03*
%TD*%
D14*
%TO.C,L4*%
X192278000Y-46863000D03*
X192278000Y-38963000D03*
%TD*%
D33*
%TO.C,Q2*%
X64450000Y-69000000D03*
D34*
X64450000Y-63550000D03*
X64450000Y-58100000D03*
%TD*%
D31*
%TO.C,D14*%
X66040000Y-98552000D03*
D32*
X73660000Y-98552000D03*
%TD*%
D18*
%TO.C,REF\u002A\u002A*%
X159010000Y-123190000D03*
X159669010Y-121599010D03*
X159669010Y-124780990D03*
X161260000Y-120940000D03*
D19*
X161260000Y-123190000D03*
D18*
X161260000Y-125440000D03*
X162850990Y-121599010D03*
X162850990Y-124780990D03*
X163510000Y-123190000D03*
%TD*%
D56*
%TO.C,U1*%
X112710000Y-118425000D03*
D57*
X110170000Y-118425000D03*
X107630000Y-118425000D03*
X105090000Y-118425000D03*
%TD*%
D58*
%TO.C,Q6*%
X173228000Y-112268000D03*
D59*
X173228000Y-114808000D03*
X173228000Y-117348000D03*
%TD*%
G36*
X95889039Y-72663685D02*
G01*
X95934794Y-72716489D01*
X95946000Y-72768000D01*
X95946000Y-107644638D01*
X95926315Y-107711677D01*
X95909681Y-107732319D01*
X94930000Y-108711999D01*
X94930000Y-120090638D01*
X94910315Y-120157677D01*
X94893681Y-120178319D01*
X93442319Y-121629681D01*
X93380996Y-121663166D01*
X93354638Y-121666000D01*
X87942000Y-121666000D01*
X87874961Y-121646315D01*
X87829206Y-121593511D01*
X87818000Y-121542000D01*
X87818000Y-121028000D01*
X87837685Y-120960961D01*
X87890489Y-120915206D01*
X87942000Y-120904000D01*
X92898000Y-120904000D01*
X92898000Y-120903999D01*
X94168000Y-119633999D01*
X94168000Y-108001362D01*
X94187685Y-107934323D01*
X94204319Y-107913681D01*
X95183999Y-106934000D01*
X95184000Y-106933999D01*
X95184000Y-72768000D01*
X95203685Y-72700961D01*
X95256489Y-72655206D01*
X95308000Y-72644000D01*
X95822000Y-72644000D01*
X95889039Y-72663685D01*
G37*
M02*
